<svg id="Layer_1" data-name="Layer 1" xmlns="http://www.w3.org/2000/svg" viewBox="0 0 950.28 335.52">
  <defs>
    <style>
      .cls-1 {
        fill: #d0d0d0;
      }
    </style>
  </defs>
  <title>city2</title>
  <g>
    <path class="cls-1" d="M666.69,258.23c0-14,0-27.11,0-40.25,0-2.83-.11-5.67,0-8.5s-.71-4.55-3.1-6.59a15,15,0,0,1-4.68-9.17c-.68-7.27-.21-14.65-.19-22,0-9.07,2.89-12.09,12.08-12.83a28.43,28.43,0,0,0,2.82-.55L678.6,114l1.37-.09c.36,2.33.8,4.64,1.05,7,1.18,10.93,2.38,21.86,3.39,32.81.31,3.39.88,5.44,5.17,5.42,6.51,0,10.2,3.84,10.36,10.32.21,8.33.52,16.7-.2,25-.27,3.16-3.22,6.1-5,9.1-.78,1.29-2.48,2.46-2.51,3.71-.22,9.14-.12,18.28-.12,28.18h20.64v23.74h16.17c0-2.36,0-4.45,0-6.55,0-29.33.06-58.66-.09-88,0-3.72,1-6,4.17-8.15,11.41-7.5,22.59-15.35,33.87-23.06,1.89-1.3,3.82-2.54,6.78-4.5,0,3,0,5.08,0,7.14q0,71,0,142c0,10.92.17,11.05,11.84,9.05V206.38h16.44v-66a78.25,78.25,0,0,1,8.46.05c4.5.52,6-1,5.95-5.72-.27-18.33-.11-36.66-.1-55,0-2,0-3.94,0-6.28l7.47-1L827,38.8l1.37-.08c.59,5.38,1.21,10.77,1.77,16.16.35,3.31.77,6.63.87,10,.16,5.17.08,10.33,8.33,7.8v67.68h14v65.57l10.85.65V278h10.47V210.38c6.69,0,12.64-.22,18.55.22,1,.07,2.46,3,2.47,4.68.17,19.5.12,39,.11,58.49,0,2.9.05,5.65,4.83,3.9V235.79h20.9V278l7.56.62c.09,1.73.24,3.47.25,5.22,0,14.33,0,28.66,0,43,0,8.4-.77,7.28,7.59,7.36,4.45,0,8.91,0,13.36,0v1.3H.07L0,334.58H19c-2-6.52-.82-10.88,5.84-12.21a1.72,1.72,0,0,0,1-1c1.68-4.92,5.59-5.66,10-5.48a17.5,17.5,0,0,0,2.9-.44V296.33h12.6c.12-2.42.28-4.19.29-6,0-13,0-26,0-39,0-3.18-.12-5.91,3-8.6s4.35-7,6.46-10.58c.89-1.52,1.87-3,3.3-5.28,2.34,4,3.62,7.93,6.26,10.39,7.72,7.2,6.36,16.29,6.34,25.21,0,3.14,0,6.28,0,10.23,7.3,0,14.22.16,21.12-.21.83,0,2.13-2.94,2.15-4.53.16-15.66.1-31.33.11-47,0-2,0-3.94,0-6.45H113V193.71l1.62,0v20.5h12.51c.13,2.9.33,5.31.34,7.72,0,9,.1,18,0,27,0,3,1,4.17,4.08,4,4.13-.18,8.27,0,13,0V145.4h41V283.88h6.2v-46h15c.15-2.81.37-5.07.37-7.33,0-30,.11-60-.08-90,0-4.78.84-6.81,6.24-6.51,9.12.51,18.29.14,28,.14.15,2.37.39,4.45.39,6.52,0,37.66.11,75.33-.09,113,0,4.81,1.26,6.62,6.11,6.1,4.59-.49,10.84,1.23,13.4-1.18s1.39-8.67,1.54-13.26c1.06-32.14,2-64.29,3.08-96.43.1-3.06-.58-5.07-3.23-7.09-8.94-6.82-8.08-19.47,1.17-26a10.05,10.05,0,0,0,3.76-6.17c1.39-10.06,2.25-20.19,3.35-30.3a6,6,0,0,1,2.07-4.1c.71,6,1.44,12,2.14,18q.63,5.46,1.16,10.93c.53,5.37.92,10,6.54,13.84,8,5.52,6.83,17.54-.76,23.9-1.64,1.37-3.36,3.89-3.31,5.83.93,35.81,2.13,71.62,3.29,107.43,0,1.29.3,2.58.5,4.16h31.08V205.71L331.37,214v-80.8l48.53,37.19c0-5.33,0-9.38,0-13.43,0-5.67-.25-11.35.11-17,.15-2.39,1.68-4.66,2.45-7a16.47,16.47,0,0,0,1-4.7c.1-8,0-16,0-23.86,13.87-3.39,28.55,3.33,42.2-5v56.44l1.34.47,9.06-12.12c1.2,1.48,2.25,2.63,3.14,3.9,7.67,10.9,15.44,21.73,22.87,32.79a15.92,15.92,0,0,1,2.59,8.22c.22,18.16.11,36.33.11,54.49,0,2,0,3.91,0,6.47,6.09,0,11.54,0,17,0,3.52,0,2.71-2.73,2.71-4.72q.07-31,0-62c0-3.46,0-6.92,0-10.63l5.15-.82c-.05-5.31-1.14-11.73,8.25-9.21V87a26.37,26.37,0,0,1,3.69,1.69c9.27,6.5,18.6,12.95,27.68,19.71A8.15,8.15,0,0,1,532.2,114c.24,14.16.13,28.33.13,42.49,0,1.79,0,3.58,0,6.1,9.52-2.48,7.56,4.3,7.87,9.3l5.66.72v86.7h26.58V98.91l8.06-.84V84.84a9.57,9.57,0,0,1,1.91-.67c9.2-.52,9.2-.52,9.24-9.85,0-1.47,0-2.94,0-4.8l7.84-.7V52.29h12.76c0,2.89,0,5.8,0,8.71,0,7.77,0,7.77,8.11,8.47a71.81,71.81,0,0,1-.06,8.19c-.55,4.81.8,7.36,6.17,6.46,1.4-.24,2.91.15,5,.3V98.08l8,.76v6q0,73.24,0,146.48c0,6.9,0,6.9,7.11,6.9Zm-483.18,76V147.12h-37c0,2.35,0,4.32,0,6.28q0,75.45,0,150.89c0,8.66-.13,17.33.14,26,0,1.34,1.88,3.73,2.93,3.76C160.73,334.3,171.86,334.19,183.51,334.19Zm659.87-29.93c5-1.15,9.56-2.77,14.15-3,4-.23,5.05-1.41,5-5.26q-.2-41.48,0-83c0-3.81-.88-5.19-5-5.15q-32.48.31-65,0c-4.15,0-5.37,1.17-5.34,5.32.19,23,.11,46,.12,69,0,1.62,0,3.23,0,5.72h66.91v1.53c-2.09,0-4.18,0-6.27,0-5.73,0-6,.42-4.45,7.29h10.7l0,1.55h-6.15C842.28,298.27,841.76,299.05,843.38,304.26ZM397.65,297l-.07,1.8H382v35h11.3c2.27-6.92-4.56-8.23-6.63-12.27-1.26-2.46-3.38-5.94-2.53-7.71a20.73,20.73,0,0,1,8-9c6.27-3.4,8.61,3.29,11.65,6.57,1.5,1.62,1.58,5.7.7,8.07a14.26,14.26,0,0,1-5.88,6.48c-3.52,2.13-3.65,4.59-2.55,8,1.49.09,2.8.24,4.11.23,8.65,0,7.4.6,7.4-7.54,0-42,.35-84-.2-126-.15-11.2,1.44-20.93,9.29-29.23a32.08,32.08,0,0,0,5.09-7.39c1.23-2.4,2.47-5.14,2.5-7.74.23-16.33.13-32.66.11-49,0-1.42-.18-2.83-.33-4.94-1.73,1.21-3,2-4.07,2.86-11.3,9.08-22.41,18.41-34,27.17-4.36,3.31-5.16,6.84-3.68,12.41h16.79c-1.45,1-1.69,1.38-1.94,1.39-3.33.08-6.66.12-10,.15-6,.06-6.43.62-4.52,7.58h15l-.07,1.36c-3.46,0-6.92,0-10.39,0-6.09,0-6.42.51-4.63,7.53h15.07l0,1.42c-3.43,0-6.86,0-10.3,0-6.17,0-6.46.43-4.82,7.46h15.11l0,1.59H382v7.36h16.77c-1.45,1-1.69,1.35-1.93,1.36q-4.75.11-9.49.14c-6.11,0-6.4.43-4.79,7.48h16.17c-1.31,1-1.53,1.32-1.76,1.33q-4.75.12-9.49.15c-6.33,0-6.83.73-4.63,7.73h14.84l-.06,1.24c-3.48,0-7,0-10.44,0-6,0-6.35.53-4.56,7.53h15.12v1.46H382.12v7.66h15.62l-.08,1.28c-3.47,0-6.94,0-10.41,0-6,0-6.37.58-4.56,7.56h15l0,1.54H382v7.24h15.72l0,1.48H382.1v7.65h15.64l0,1.49H382.18v7.65h15.6l-.08,1.49H382.08v7.23h15.64l0,1.53H381.75l.35,7.46h15.58l0,1.36H382.47c-1.41,7.18-1.27,7.36,4.95,7.38,3.44,0,6.87,0,10.31,0l0,1.79H382.3c-1.06,7.07-1,7.14,4.87,7.17,3.51,0,7,0,10.53,0v1.6H382.45c-1.31,7.28-1.27,7.34,5,7.36C390.88,297,394.26,297,397.65,297Zm65.12,37.2v-148H409.36c0,2.4,0,4.36,0,6.33q0,34.21,0,68.42c0,21.47,0,42.95,0,64.42,0,10.37-1.16,8.75,8.6,8.85,8.66.09,17.31,0,26,0Zm-129-196.42a13.71,13.71,0,0,0-.51,2.33c0,24-.1,48,.1,72,0,1.6,1.79,3.83,3.34,4.65,7.34,3.92,14.79,7.66,22.39,11,3.7,1.64,5,3.7,5,7.85-.19,30.65-.11,61.3-.09,92,0,2.08.21,4.16.33,6.3h15.05a34.92,34.92,0,0,0,.4-3.66q0-77-.13-153.93a8.94,8.94,0,0,0-3.2-6c-12.81-10.12-25.82-20-38.78-29.89C336.61,139.51,335.37,138.81,333.81,137.79Zm5.44,124-.16,1.71H315.76v7.15h23.68l0,1.47c-6.21,0-12.43,0-18.64,0-5.86,0-6.4.88-4.2,7.37h22.85l0,1.49H315.83c-.68,7.09-.68,7.09,5.36,7.12,3.17,0,6.33,0,9.5,0h8.76l0,1.81h-24c0,14.36,0,28,.1,41.63,0,.89,1.38,2.51,2.16,2.54,6.59.2,13.19.12,20,.12,0-6.11,2.64-12.1-4.53-15.7a13.57,13.57,0,0,1-5.3-5.65c-1.22-2.31-2.76-6-1.76-7.63,2.59-4.21,5.84-8.83,10-11.07,7.62-4.09,9.63,4.76,14,8,2.92,2.21,3.14,6.06,1,9.07a53.37,53.37,0,0,1-8,8.66c-2.59,2.3-4.86,10.42-3.09,13.18a2.31,2.31,0,0,0,1.55,1c6.74.07,13.49,0,20.28,0V289.52H348l0-1.44c3.36,0,6.73-.11,10.08,0,2.8.12,4.36-.54,4.29-3.82-.07-3.11-1.69-3.49-4.17-3.41-3.4.11-6.81,0-10.22,0l0-1.66h13.51c1.33-6.89,1.16-7.13-4.66-7.16-2.94,0-5.89,0-8.83,0l0-1.66h13.46c1.32-6.85,1.18-7-4.71-7.07-2.93,0-5.87,0-8.8,0l0-1.75h13.87v-7.31H348.07l.11-1.29c2.82,0,5.64,0,8.45,0,6.07,0,6.49-.63,4.58-7.57h-13.3l.09-1.25c3.48,0,7-.12,10.45,0,2.74.13,3.9-.8,3.9-3.68s-1.47-3.63-4.06-3.54c-3.43.12-6.87,0-10.31,0l0-1.67a64.13,64.13,0,0,0,6.75-.05c2.46-.26,4.88-.91,7.32-1.39-1.87-1.77-3.45-4.08-5.65-5.21-10.5-5.43-21.15-10.55-31.76-15.76-2.78-1.37-5.61-2.64-8.87-4.17v27h23.66l0,1.45H315.93c-.9,6.95-.9,7,5.07,7h18.45v1.68H316.09c-1.18,7-1.07,7.11,4.78,7.13,6.17,0,12.33,0,18.5,0v1.63H315.76v7.14ZM185.56,286c0,14.72.16,28.68-.09,42.64-.08,4.31,1.05,5.69,5.55,5.66,33.29-.19,66.59-.1,99.89-.12,1.59,0,3.18-.2,4.87-.32V285.7H282.59l-.73-8.66H250.41l-.44,8.44H235l-.47-8.46H203.14l-.51,9Zm655.21,3.34h-16c-35.63,0-71.25.07-106.87-.06-4,0-5.65,1-5.42,5.26.35,6.47,0,13,.15,19.47,0,1.16.59,3.12,1.27,3.3a5.13,5.13,0,0,0,4-.86c5.79-4.74,12.32-3.46,18.5-1.87,2.06.53,3.4,4,5,6.2.62.87.79,2.73,1.39,2.84,6,1,6.55,5.18,5.65,10.28h18.18c-.72-2.56-.75-5-2-6.49-2.5-3-6-5.09-8.38-8.13-1.32-1.71-2.34-5.33-1.42-6.76,2.59-4,5.61-8.61,9.64-10.72,7.06-3.7,9.44,4.21,13.08,7.76,1.64,1.6,2,6.18,1,8.49a19.93,19.93,0,0,1-7.5,8.26c-3.43,2.07-3.62,4.19-2.56,7.58,1.33.11,2.61.31,3.9.31,12.94,0,25.89,0,38.25,0-.26-3.82-1.48-7.5-.52-10.48,2.27-7.07,12.63-6.2,14.92-14.12.34-1.18,4.46-1.38,6.87-1.8a35.2,35.2,0,0,1,4.49,0c1.43-.06,2.86-.23,4.48-.37Zm-69.2-2v-155c-6.81,4.63-12.83,9-19.11,12.89-3.22,2-4.33,4.29-4.32,8.09.14,42.78.09,85.57.09,128.35,0,1.79,0,3.59,0,5.64ZM144.52,297.88H113.44c-22.66,0-45.31,0-68,.08-1.58,0-4.48.89-4.53,1.53-.37,5.12-.21,10.29-.21,16.12,8.56-7.14,17.29-3.71,25-3.62,1.71,3.88,2.46,8.05,4.93,10.48s6.74,3.28,9.33,4.43l-5.16,6.93h69.68Zm95-38.45V136.34H209.3V237.91h14.89v21.52Zm429.18-54.3c-.1,2.18-.24,3.82-.24,5.45q0,59,0,118c0,1-.32,2.2.12,3,.62,1.06,1.77,2.51,2.75,2.55,6.1.23,12.22.12,18.65.12V205.13ZM851.48,142.2c-15.42,0-30.21-.08-45,.19-.92,0-2.55,2.69-2.57,4.14-.18,18.49-.13,37-.1,55.48a29.24,29.24,0,0,0,.47,3.76h47.2ZM505.7,334v-82H465.3v82ZM313.69,262H218c0,3.15.2,5.83,0,8.47-.35,3.67,1.35,4.59,4.67,4.44,4.44-.2,8.89-.05,13.43-.05,1.25,4.17-1.82,9.55,6.24,9.71,8.34.17,5.46-5.41,6.58-9.26h34.85l.52,8.84H298V334.2c4.2,0,7.69-.2,11.15.05s4.6-1,4.57-4.53c-.15-17.5-.07-35-.07-52.49C313.69,272.26,313.69,267.28,313.69,262Zm550.55,18.45c0,2.11,0,3.59,0,5.07,0,4.16.1,8.33,0,12.49-.08,3,1.81,3.06,3.94,3.08,5.48,0,9.8,2.31,12.06,7.33,1.19,2.63,1.4,5.71,2.06,8.62,11,2.36,12.68,5.25,9.36,17.18,11.24,0,22.35.05,33.47-.1.81,0,1.6-1.5,2.4-2.31-.84-.77-1.64-2.14-2.54-2.2-3.81-.27-7.65-.17-11.48-.18s-7.74,0-11.61,0q0-.81,0-1.62h25.23v-7H902l0-1.44h25.24v-6.85H901.9l.07-1.6h25.26v-6.56h-25.3q0-.82,0-1.64h25.7l-.42-6.85H902l0-1.48h25.16v-6.61H902v-1.57c7,0,14-.17,21,.06,4.71.15,5.33-1.85,4-5.82Zm-279.7-19.08c-11.5,0-22.47.17-33.43-.09-4.16-.1-5.39,1.21-5.35,5.35.18,20.65.07,41.31.09,62,0,1.76.23,3.53.36,5.4h6.06c-1.23-5-.78-9,5-10.1a1.7,1.7,0,0,0,1.13-.86c1.94-5.59,6.58-5.27,11.15-5.24a8.61,8.61,0,0,0,3.37-.63c3.67-1.58,7.28-3.31,11.6-5.3Zm-66-86.59V333.92c1.56.11,2.7.27,3.84.26,9.58-.07,8.19,1,8.2-8.22q.07-70.9,0-141.8c0-11.21,0-11.22-11.26-9.92C519.2,174.27,519.07,174.41,518.54,174.75Zm25.21,159V174.36a28.63,28.63,0,0,0-2.85-.33c-10.61-.06-8.52-.58-8.54,8.35q-.12,71.17,0,142.33C532.33,335.22,532.33,335.22,543.76,333.72ZM879.67,319c.69-10.18-2.8-15.61-10.38-16.09a116.11,116.11,0,0,0-15.45,0c-2.17.15-5.21,1-6.21,2.54-3.07,4.8-7.51,3.91-11.84,3.93-10.45.06-10.84.29-14.62,9.71-.93.07-1.93.07-2.9.22-4.81.75-7.44,3.68-7.19,8s3.27,6.91,8.19,6.93c19.79.08,39.58,0,59.36,0,1.83,0,3.66.09,5.49,0,4.48-.3,7.41-3,7.62-7,.22-4.2-2.61-7.26-7.33-7.84C882.94,319.15,881.46,319.11,879.67,319ZM515.92,333.73V174a59.64,59.64,0,0,1-7.4-.05c-4.86-.64-6.14,1.31-6.09,6.08.25,21,.14,42,.07,62.94,0,3.87-.68,7.87,5.24,7.86v6.36q0,35,0,69.93C507.75,334.84,507.76,334.84,515.92,333.73Zm212.68-46V261.15H710.9V237.59H692.75a3.93,3.93,0,0,0-.35.85c-.1,31-.23,62-.16,93,0,1.06,2,2.11,3.3,3.35.58-3.64.16-6.58,1.43-7.91a43.73,43.73,0,0,1,10.81-8.57c2.37-1.26,3.16-2.25,3.12-4.68-.1-6.66.24-13.35-.13-20-.25-4.53,1.05-6.39,5.78-6C720.46,288,724.44,287.71,728.6,287.71Zm-198-125.51c0-14.57-.37-28.55.17-42.49.24-6.24-1.61-10.07-6.88-13.36-8-5-15.42-10.71-23.68-16.55V162.2Zm135.84,97.73c-8.44,0-16.25.05-24.06,0-3,0-3,1.89-3,4,0,12.5.07,25,0,37.49,0,2.87.69,4.15,3.88,4.21,7.74.14,7.74.31,7.77,8.11q0,6.25,0,12.5c0,2.56,0,5.13,0,7.62h15.42ZM267.58,145.29l-3.53,114.08h16.2l-3.6-114.08ZM102.3,295.86h23.1v-79.3H102.3ZM818.34,75v65h18.9V75Zm75.27,203.14v-66c-4.17,0-7.84.25-11.46-.07-4.27-.37-5.78.92-5.72,5.49.26,18.47.1,37,.12,55.43,0,1.62.18,3.25.3,5.17ZM53.38,246.17c0,16.28-.05,31.87.14,47.46,0,.86,2.08,2.35,3.26,2.41a122.88,122.88,0,0,0,15,0c1.19-.08,3.22-1.91,3.24-3,.23-14.64.22-29.28.08-43.92,0-1-1.5-2.8-2.36-2.84C66.45,246.05,60.17,246.17,53.38,246.17Zm447,3.88V174c-3.91,0-7.41-.27-10.83.15-1.18.15-3.05,2-3.06,3.12q-.27,34.69,0,69.39c0,1.13,1.5,3.13,2.45,3.23C492.63,250.27,496.43,250,500.36,250Zm160.11-68.19c0,4-.11,8,0,12,.19,5.73,3.35,9.06,9,9.2q10,.26,20,0c5.17-.14,8.52-3.28,8.67-8.45q.37-12.73,0-25.48c-.15-5.23-3.43-8.24-8.68-8.37-6.66-.16-13.32-.15-20,0-5.69.12-8.81,3.35-9,9.13C660.38,173.86,660.48,177.86,660.47,181.86Zm77.31-25.64c-5.71,1.81-7.27,5.06-7.24,10.37.25,38.47.15,76.94.17,115.41,0,6.22.8,6.74,7.07,4.68Zm8.43-5.76c-4.84,1.51-6.5,4-6.48,8.66.18,41.13.1,82.27.12,123.4,0,1.59.17,3.19.26,4.8h6.1ZM597.78,312.83v-7.48h17.53v-6.91H597.68V291h17.81v-7.09h-29c0,5.2,0,10,0,14.79s0,9.54,0,14.49c6,.61,10.26,2.64,10.86,8.87.06.65.79,1.69,1.33,1.78,6.18,1,6.1,5.46,5.47,10.07H615.4v-21ZM222.3,259.39c0-6,.18-11.61-.17-17.21-.06-1-2.33-2.51-3.62-2.56-6.82-.27-13.66,0-20.48-.21-3.62-.13-4.5,1.34-4.46,4.69.16,11.32,0,22.65.06,34,0,6.57.05,6.6,6.82,5.61.6-2.83.31-7,2-8.15,2.24-1.5,6.08-.59,9.23-.72a3.34,3.34,0,0,1,.5,0c3.07.34,4.15-1.1,4-4.08-.16-3.59,0-7.18,0-10.84ZM68.52,324.2c-2-4.06-3-7.5-5.14-9.8-2.5-2.67-15.7-2.53-18.09.21-2.9,3.33-6.26,3.16-9.86,3-3.82-.17-6.9.58-8.15,4.87-.25.85-1.77,1.64-2.84,1.89-3,.71-5.43,2.5-4.48,5.38.62,1.89,3.46,4,5.56,4.27,4.4.65,9,.21,13.46.21,10.16,0,20.32.22,30.46-.22,1.93-.08,4.78-2.49,5.37-4.4.93-3-1.57-4.74-4.61-5.18ZM617.5,305h20.16c0-9.27-.09-18.07,0-26.86,0-3.17-1.66-3.41-4.1-3.41q-21.47.08-42.93,0c-2.38,0-4.16.09-4.19,3.33,0,3.4,1.77,3.75,4.42,3.71,6-.08,12,0,18,0h8.62ZM462.07,183.61l-25.83-36.74-25.72,36.74Zm440.46,94.47h16.82V237.65H902.53Zm-758-22.93h-17c0,13,0,25.63.09,38.21,0,.93,1.3,2.6,2.06,2.63,4.89.24,9.81.12,14.87.12Zm596.55,70.43c-1.64-3.54-2.36-6.73-4.28-8.83-2.47-2.7-13.41-1.91-16.7,0a18.59,18.59,0,0,1-7.44,2.53c-3.77.36-7.44.13-8.41,5.06-.11.57-1.44,1.17-2.27,1.29-2.92.43-5.16,2.11-4.14,4.85.63,1.7,3.54,3.48,5.51,3.57,8.28.39,16.6.17,24.9.17,4.65,0,9.34.35,13.93-.2,1.76-.21,3.28-2.5,4.9-3.85-1.44-1.49-2.79-3.09-4.36-4.42C742.24,325.34,741.16,325.58,741.12,325.58Zm-143.92,0c-2-3.87-3-8.42-4.75-8.73-5.28-.94-11.13-1.19-16.21.25-2.57.72-5,2.41-8,2.32-3.6-.11-7.18-.07-8,4.71a2.31,2.31,0,0,1-1.64,1.41c-3.28.31-5.74,1.59-5,5.25s3.94,3.44,6.83,3.43c10.31,0,20.62,0,30.94,0,2.49,0,5.16.48,7.42-.25a6.44,6.44,0,0,0,3.8-4.18c.19-1.12-2-2.89-3.45-3.95A2.25,2.25,0,0,0,597.2,325.61Zm26.6-7.67c7.52,0,14.8-.06,22.08,0,4.49.05,3.32-3.2,3.4-5.64s.66-5.18-3.41-5.12c-8.33.12-16.66.07-25,0-2.55,0-3.53,1-3.49,3.59.11,6.49.15,13,0,19.49-.08,3.07,1.06,4.08,4.07,4,7-.16,14,0,21-.05,7.61,0,7.87-.34,6.05-8.63H623.8ZM610.3,121.07V53.94H601.8v67.13Zm2.34-35V121h16.59V86.07Zm-29.95-.27V121h17c0-11.1.07-21.85-.12-32.59,0-.87-1.72-2.4-2.7-2.45C592.29,85.65,587.67,85.8,582.69,85.8Zm54.67,37.68H574.84c-1.27,8.76-1.27,8.75,7,8.74h55.49ZM77.27,296.16c7,0,13.27-.08,19.56,0,2.66,0,3.49-1.14,3.45-3.6-.08-4.82.15-9.65-.12-14.46-.07-1.21-1.49-3.31-2.36-3.35-6.75-.28-13.52-.15-20.52-.15Zm338-189.49-.46-1H385.65v24.89Zm77,65.22h45.25c1.39-7.43,1.23-7.66-5.39-7.67q-17.19,0-34.39,0C491.14,164.25,491,164.42,492.33,171.89ZM339.6,318.5l1.63.79c2.86-3,6.12-5.81,8.4-9.23,1-1.43.48-4.6-.49-6.34-1.46-2.62-3.85-4.74-6-6.93a6.17,6.17,0,0,0-3-1.65c-6.61-1.35-6.79,6.31-11.21,8.32-1.12.51-2,4.52-1.2,5.69,2.54,3.71,5.92,6.85,9,10.21l1.34-.88-3.58-11L336,307l1,4.24.79-.06.79-6.39.71,0,.7,6.46.83,0,1.3-4.28,1.44.64Zm235.34-87.74c-1.54,3.91,0,4.85,3.55,4.83,18.32-.1,36.64,0,55-.07a37.11,37.11,0,0,0,3.72-.36c1.41-4.22-.68-4.82-3.93-4.8-18.15.07-36.3,0-54.46,0C577.48,230.42,576.19,230.65,574.94,230.77Zm62.13-39.5c1.17-3.82.31-5.29-3.47-5.27-18.32.1-36.64,0-55,.15-1.43,0-2.84,1.66-4.26,2.55,1.43.86,2.84,2.45,4.28,2.46,16.65.17,33.31.1,50,.1Zm-31.35,59.1c9.32,0,18.64.1,28-.11,1.32,0,2.62-1.51,3.92-2.32-1.2-.93-2.4-2.65-3.61-2.67q-28-.27-55.92,0c-1.23,0-2.45,1.7-3.68,2.61,1.29.83,2.56,2.35,3.87,2.38C587.41,250.46,596.57,250.36,605.72,250.37ZM637,200.9c-20.06,0-39.87,0-59.67.1-1,0-2,1.5-2.94,2.3,1.2.94,2.39,2.68,3.6,2.69,18.65.18,37.31.09,56,.17C637.59,206.18,638.25,204.57,637,200.9Zm0-59.08c-20,0-39.85,0-59.65.1-1,0-2,1.51-2.93,2.32,1.2.93,2.4,2.66,3.61,2.68,18.65.17,37.3.09,56,.15C637.54,147.08,638.29,145.51,637,141.82Zm.14,34.34c1.35-3.91-.18-4.92-3.67-4.9-18.14.09-36.27,0-54.41.06-1.94,0-5.08-.8-4.41,2.71.21,1.07,3.07,2.31,4.72,2.33,17.8.17,35.61.11,53.41.09C634.2,176.44,635.66,176.26,637.1,176.16ZM574.77,216c-.8,3.1-.54,4.92,3.22,4.91q28-.1,55.93,0c3.62,0,4.3-1.57,3.18-4.93ZM637,156.65c-20.1,0-40,0-60,.11-.9,0-1.78,1.66-2.68,2.55,1.32.82,2.64,2.35,4,2.36,18.46.16,36.92.08,55.38.15C637.08,161.84,638.37,160.66,637,156.65ZM272,135.08c3.49,0,7,0,10.48,0,4.1,0,3.71-3.27,3.7-5.74s.33-5.65-3.82-5.62c-6.65,0-13.31.07-20,0-4.35-.08-4.17,3-4.2,5.81s0,5.88,4.32,5.65C265.63,135,268.8,135.09,272,135.08ZM766.52,325.69l-4.63-10.79,1.32-.54,1.56,4.52,1-.24.8-6.58h.72l1.1,6.8.8,0,1.68-4.78,1.4.65L767.79,325a44,44,0,0,0,9.37-7.68c.8-.88,1.13-3.33.5-4.19-2.56-3.48-5-7.8-8.57-9.62-6.66-3.37-7.4,5.33-11.65,7.5-1.06.54-1.57,4.9-.59,6.15C759.17,320.12,762.54,322.3,766.52,325.69ZM612.46,260v0c-7.33,0-14.65-.12-22,.11-1.31,0-2.58,1.58-3.86,2.42,1.22.91,2.43,2.58,3.67,2.6q21.72.28,43.45,0c1.3,0,2.58-1.57,3.87-2.41-1.39-.91-2.75-2.54-4.18-2.6C626.45,259.82,619.46,260,612.46,260Zm-217.74,65.4c3.71-2.95,6.32-4.67,8.43-6.88.8-.83,1.12-3.23.5-4.11-2-2.88-4.09-6.29-7-7.85-5.67-3-6.32,4.26-9.81,6.11-1,.53-1.47,4.25-.66,5.59,1.61,2.65,4.27,4.65,6.5,6.91l1.43-.81L389.59,314l1.21-.56,2.34,4.46,1.15-6.34.78,0,1,5.53,1-.05,1.24-3.72,1.39.61ZM683.24,158.61,680,128.31l-1.27.06-3.2,30.24ZM580.58,121c0-5.69,0-10.81,0-15.93s-.48-5.53-5.9-4V121Zm57-.09c0-6.33.09-12.43-.12-18.51,0-.75-1.63-2-2.59-2s-3.12.83-3.14,1.37c-.22,6.45-.14,12.92-.14,19.66ZM261,121.52H282.8C278,113.61,267.74,113.42,261,121.52ZM56.3,244.07H72.23l-8-14Zm204.36-107c2.88,4.35,6.44,6.16,10.9,6.29,4.82.14,8.89-1.34,11.87-6.29ZM637.17,323.94c3.16,0,6.34.17,9.48-.11.89-.08,1.67-1.49,2.49-2.28-.8-.63-1.59-1.78-2.4-1.8q-9.49-.23-19,0c-.83,0-1.64,1.13-2.46,1.74.79.81,1.53,2.25,2.39,2.33C630.83,324.09,634,323.92,637.17,323.94ZM269,113.31h6.33L272.7,89.5l-1.19.08ZM612.27,71.59c0,3.17-.3,6.18.14,9.07.19,1.23,1.91,2.23,2.93,3.34,1.1-1,2.68-1.88,3.16-3.15.55-1.44,0-3.28.16-4.91C619.17,71.29,617.25,69.89,612.27,71.59Zm-18.9-.43c0,3.12.18,5.6,0,8-.46,5.05,2.06,5.46,6,4.28V71.16Zm14,236.11a41.66,41.66,0,0,0-5.91.09c-.84.12-1.54,1.21-2.31,1.86.65.59,1.28,1.65,2,1.68,4.11.16,8.23.17,12.34,0,.7,0,1.37-1,2-1.6-.73-.68-1.39-1.82-2.21-1.94A41.67,41.67,0,0,0,607.41,307.27Zm0-14.53v0a43.12,43.12,0,0,0-6,.09c-.85.12-1.56,1.19-2.34,1.83.66.77,1.28,2.17,2,2.21a124,124,0,0,0,12.44,0c.73,0,1.39-1.38,2.08-2.12-.74-.67-1.42-1.8-2.24-1.92A41.6,41.6,0,0,0,607.44,292.75Zm-17.56-91.44c2.2-2.66,4-3.85,4.24-5.32.62-3.36-2.14-3-4.27-2.95s-5-.59-4.33,2.85C585.81,197.45,587.71,198.71,589.88,201.31Zm25.39-8.75a68.32,68.32,0,0,0-8.23,1.85c-.38.13-.32,3.45.05,3.56a68.59,68.59,0,0,0,8.17,1.5Zm6.48-1.32c-2,2.23-3.89,3.35-4.22,4.82-.75,3.31,1.95,3.13,4.15,3.09s5.32.53,4.5-3.21C625.85,194.5,623.88,193.42,621.74,191.24Zm6.68,7.55h9.2l-.3-5.4h-8.9Zm-53.52,9.36c-.85,6.17.66,7,8.36,5v-5Zm43-.21c-1.06,4-.75,6.36,3.56,6.05,2.46-.18,5.73.36,4.75-3.56C625,205.37,620.88,208.89,617.92,207.94Zm10.68.15c-.61,6.31.58,7,8.6,5.16v-5.16ZM637.32,223h-8.83v5.35h8.83Zm-54,14.66h-8.48v5.38h8.48Zm54.13,29.57h-8.81v5.4h8.81Zm-9-24.5c8.86,1.54,9.55,1.15,8.76-5h-8.76Zm-45,9.94c-8.81-1.45-9.73-.83-8.22,5.08h8.22Zm34.69,6c2.73-2,7.06,2.49,8.18-3.12.8-4-2.43-3.32-4.86-3.49C616.95,251.78,616.94,254.29,618.07,258.7Zm9.69-.84h10.19c-.52-2.14-.58-4.94-1.38-5.17a14.08,14.08,0,0,0-7.28-.06C628.47,252.85,628.35,255.65,627.76,257.86Zm-5.87,17c2.06-2.21,4-3.32,4.29-4.78.74-3.23-1.82-3.2-4.1-3.11s-5.3-.58-4.54,3.16C617.84,271.54,619.8,272.65,621.89,274.84ZM583.94,135l-1.44-1.57a73.27,73.27,0,0,0-7.93,2.21c-.33.13-.07,3.46.32,3.54,2.35.53,4.93,1,7.18.51C583,139.43,583.34,136.6,583.94,135Zm5.9,7.23c2.22-2.65,4-3.84,4.28-5.31.63-3.37-2.15-3-4.26-2.92s-5-.65-4.33,2.82C585.82,138.34,587.7,139.6,589.84,142.19Zm28-8.18c-.92,4-.79,6.43,3.61,6.09,2.5-.2,5.72.3,4.75-3.59C624.94,131.44,620.88,135,617.86,134Zm19.49-.79a84.8,84.8,0,0,0-8.94,2.24c-.35.12-.17,3.5.18,3.58a83.27,83.27,0,0,0,8.76,1.21Zm-54.31,16c-8.71-1-9-.83-8.19,4.92C582.52,156,583.9,155.22,583,149.18Zm45.55-.17c-.61,6.25.65,6.93,8.58,5.13V149Zm-53.92,29.75V184H583C583.89,177.88,583.26,177.48,574.67,178.77ZM628.56,184h8.79v-5C629.26,177.1,628,177.77,628.56,184Zm-45.29,8.62a73.91,73.91,0,0,0-8.57,1.64c-.37.11-.38,3.49,0,3.59a80.6,80.6,0,0,0,8.61,1.68Zm2.4-37.57a59.05,59.05,0,0,0,8.11-1.26c.39-.11.41-3.83.06-3.93a62.76,62.76,0,0,0-8.17-1.3Zm30.21-20.18-1.39-1.39a58.78,58.78,0,0,0-7.5,2c-.31.12,0,3.72.56,3.86,2.15.56,4.66.94,6.67.27C615.19,139.3,615.35,136.52,615.88,134.84Zm-30.2,108.8a64.7,64.7,0,0,0,8.2-1.32c.33-.09.29-3.82-.12-3.94a57.22,57.22,0,0,0-8.07-1.23Zm36.19-57.23c2.22-2.59,4-3.76,4.31-5.22.63-3.35-2.18-3-4.28-3s-5-.6-4.36,2.83C617.82,182.62,619.73,183.88,621.87,186.42ZM626,243.08c.49-6.15-.75-6.83-8.26-5v5ZM585,257.23l1.38,1.41A60.1,60.1,0,0,0,594,256.8c.3-.11,0-3.74-.48-3.88-2.13-.59-4.63-1-6.64-.36C585.86,252.87,585.62,255.59,585,257.23Zm30-73c1.37-4.51.28-6.34-4-6.07-2.54.16-5.11.27-4.25,3.59C608.12,186.76,612.11,183.29,615,184.23Zm.19,74.15c.52-3.76,1.18-6.64-3.47-6.3-2.38.18-5.68-.59-4.92,3.41C607.84,260.89,612.09,257,615.2,258.37Zm.7,9.49-1.35-1.41a59.88,59.88,0,0,0-7.55,2c-.31.12,0,3.72.54,3.86,2.14.56,4.65.94,6.66.28C615.18,272.28,615.36,269.52,615.9,267.87Zm-.87-119c-2.89.94-6.85-2.53-8.21,2.44-.92,3.36,1.7,3.43,4.21,3.6C615.24,155.2,616.38,153.4,615,148.87Zm11.65.29H617c.57,2.15.64,4.87,1.49,5.14a11.36,11.36,0,0,0,6.72,0C626.09,154,626.14,151.26,626.68,149.16ZM606.46,208.1c.49,2.2.46,5,1.29,5.25a10.6,10.6,0,0,0,6.67.08c.92-.33.92-3.19,1.44-5.32Zm-20.53-.22c-1,3.92-1,6.4,3.41,6.11,2.42-.16,5.69.45,4.82-3.48C593,205.31,588.88,209,585.93,207.88Zm-.9-24.54,1.37,1.4a61.11,61.11,0,0,0,7.57-1.88c.3-.11,0-3.72-.5-3.85-2.13-.57-4.63-1-6.64-.33C585.84,179,585.61,181.71,585,183.34Zm30.93,55L614.57,237a57.86,57.86,0,0,0-7.53,1.86c-.33.12-.05,3.73.43,3.86,2.14.55,4.63,1,6.63.32C615.11,242.68,615.36,240,616,238.37Zm1.65-9.4a71.08,71.08,0,0,0,8.35-1.48c.37-.11.4-3.47.1-3.55a82.47,82.47,0,0,0-8.45-1.52Zm-2.3-6.94a70.86,70.86,0,0,0-8.32,2.11c-.37.14-.19,3.44.16,3.53a70.16,70.16,0,0,0,8.16,1.18Zm-29.39.71c-1.07,4-.76,6.24,3.48,6,2.43-.16,5.69.38,4.75-3.47C592.94,220.23,588.87,223.71,585.92,222.74Zm-2.34,5.64-.28-5.32h-8.91l.24,5.32Zm-.2-64.22h-9.15l.51,4.94h8.64Zm23.9,5.13c1.53.08,2.82.23,4.11.2s2.51-.26,3.9-.42v-4.9C607.25,162.63,606.44,163.11,607.28,169.29Zm21.18-.19h9.19l-.32-5.25h-8.87ZM828.38,55.66l-1.16-.1c-.47,4.89-1,9.77-1.29,14.66,0,.82,1.28,1.71,2,2.57.6-.95,1.75-1.92,1.7-2.84C829.35,65.18,828.81,60.42,828.38,55.66Zm-232,187.41h8.15v-5.37h-8.15Zm-10.5-79.39c-1.1,4-.66,6.2,3.55,5.85,2.41-.2,5.69.39,4.67-3.5C592.86,161.06,588.82,164.62,585.93,163.68ZM596,140.25c3.19-.39,5.89-.45,8.35-1.24.48-.16.07-3.11.07-4.76h-8Zm9.22,117.67c-.6-2.16-.6-4.86-1.65-5.36a8,8,0,0,0-6.15,0c-1,.49-1.08,3.16-1.72,5.38Zm-.65-103.41V149.1h-8.14v5.41Zm-8,38.14v6.83a51.09,51.09,0,0,0,7.86-1.39c.43-.14.45-3.8,0-3.95A50.58,50.58,0,0,0,596.56,192.65Zm0,15.52v5.45h7.83v-5.45Zm-.88,59.07c.65,2.21.69,4.87,1.74,5.37a8,8,0,0,0,6.14,0c1-.48,1-3.16,1.65-5.37Zm-8.7-.39c-.41,3.39-1.58,6.28,3,6.22,2.23,0,4.6.21,4.29-3.14C593.75,264.58,589.84,267.86,587,266.85ZM604.58,223h-8.17v5.36h8.17Zm-8.18-39h8.16v-5.42H596.4Zm7.89-14.8c1-6.1.27-6.53-8.09-5l.22,5Zm12.45-5.33c.84,2.36,1.07,4.92,2,5.19a11.61,11.61,0,0,0,6.69-.15c.77-.26.7-3,1.09-5Z"/>
    <path class="cls-1" d="M490.73,26.82c-2.15-14.13,1.08-21.87,10.13-25.44s17.09-.26,24.1,10a59,59,0,0,1,6.64-1.25c8.83-.69,15.82,4.13,18.24,13,.78,2.85,2,3.83,4.74,3.65a30.5,30.5,0,0,1,6,.21,13.26,13.26,0,0,1,1.13,26.08,20.36,20.36,0,0,1-4.45.52c-24.83,0-49.65.09-74.48,0-10,0-16.34-7.23-14.55-15.95,1.29-6.27,6-10.39,12.64-10.77C484.11,26.67,487.37,26.82,490.73,26.82ZM524,14C517.75,2.89,509.56-.83,500.7,3.38S489.41,16,494,28.5c-4.29,0-8.42-.16-12.53,0-6.76.32-11.63,5-11.83,11.18a11.48,11.48,0,0,0,11.47,12q38.72.32,77.44,0A11.62,11.62,0,0,0,570.34,40c-.09-6.35-5.06-11.17-12-11.52-3.11-.16-6.23,0-9.21,0C547,13.83,538.28,9,524,14Z"/>
    <path class="cls-1" d="M720.46,51.4c-.18-1.22-.43-2.51-.56-3.81a13.56,13.56,0,0,1,7.84-13.8c5.56-2.51,12.11-1.36,15.84,3.46,2,2.54,3.57,3.46,6.9,2.91,6.61-1.09,11.61,2.11,13.92,8.63,1,2.72,2.3,3.45,5,3.48,7.32.08,11.76,4,11.7,10.05s-4.56,10-11.83,10q-26.7.09-53.41,0c-7.44,0-11.84-3.76-12-9.85S708.32,52.39,716,52.18c1.16,0,2.33-.07,3.48-.18C719.75,52,720,51.69,720.46,51.4Zm3,2.5c-3.24,0-6.38-.17-9.5,0-4.85.32-8.33,3.95-8.31,8.33A8.15,8.15,0,0,0,714,70.5q28.49.23,57,0a8.2,8.2,0,0,0,8.43-8.12c.06-4.56-3.62-8.19-8.7-8.46-2.27-.12-4.55,0-6.67,0-2.68-11.3-6.91-13.63-18.85-10.9-3.86-7.54-9.65-10.41-16-7.93C722.33,37.74,720.45,43.7,723.45,53.91Z"/>
    <path class="cls-1" d="M136.49,79.94c-1.38-6.12-.62-11.17,4.17-14.91a11.92,11.92,0,0,1,16.94,2c1.69,2.13,3.08,2.69,5.76,2.3,6-.87,10.64,1.8,12.66,7.36,1,2.67,2.15,3.55,4.94,3.59,6.35.1,10.28,3.78,10.26,9.1,0,5.54-4.14,9.19-10.76,9.22q-23.72.11-47.44,0c-7.25,0-11.3-3.25-11.46-9-.17-5.92,3.8-9.21,11.4-9.46C133.93,80.16,134.91,80.05,136.49,79.94Zm2.95,1.95c-2.41,0-4.4,0-6.39,0-6.28.06-9.78,2.73-9.79,7.44s3.49,7.55,9.71,7.58c14.48.05,29,0,43.44,0a51.12,51.12,0,0,0,6-.13c4.31-.51,7.21-3.73,7.1-7.62s-3.23-6.94-7.49-7.23c-2.1-.14-4.22,0-6.15,0-3.15-10.5-6.53-12.35-17.09-9.88-4.08-7-9.27-9.45-14.93-6.92C137.94,67.76,136.35,73.32,139.44,81.89Z"/>
    <path class="cls-1" d="M340.58,55.77c-.15-2-.32-3.28-.35-4.6a12,12,0,0,1,7.49-11.85,11.73,11.73,0,0,1,14,3.38c1.77,2.2,3.25,3,6.16,2.53,6-.88,10.39,1.8,12.49,7.54,1,2.73,2.4,3.35,5.06,3.41,6.54.15,10.08,3.59,10,9.21s-3.72,9-10.28,9q-24.19.16-48.37,0c-6.77,0-10.85-3.48-11-8.94-.15-5.7,3.86-9.12,11-9.41C337.91,56.07,339,55.91,340.58,55.77Zm2.92,2c-2.39,0-4.67,0-7,0-5.43.11-8.89,2.9-9,7.24s3.44,7.64,9.1,7.72c8,.11,16,0,24,0,8.48,0,17,.11,25.45-.1,4.77-.12,7.72-3.26,7.7-7.45s-3-7.15-7.74-7.41c-2-.11-3.95,0-5.8,0-3-10.48-6.88-12.66-16.89-9.75-4.34-7.17-9.23-9.51-14.88-7.14C342.44,43.45,340.89,48.58,343.49,57.82Z"/>
    <path class="cls-1" d="M723,123.12l9.31-5.4.5.92-8.54,7-10.05-3.14.22-1.25Z"/>
    <path class="cls-1" d="M298.06,86.8l8.54,1.93,9.09-5.51.52.92-8.47,7.12-9.85-3.16Z"/>
    <path class="cls-1" d="M659.14,67.71l9.17-5.41.46.87-8.36,7.14L650.2,67l.3-1.15Z"/>
    <path class="cls-1" d="M109.15,157.75l8.59,1.8,9-5.53.54,1-8.52,7.06-9.87-3.2Z"/>
    <path class="cls-1" d="M458,115.14l9-5.51.59,1-8.53,7-10-3.06.17-1.19Z"/>
    <path class="cls-1" d="M467.56,133.77l-10-3,0-1.15c2.12.34,4.38.34,6.32,1.11,2.51,1,4,.77,5.78-1.5,1.31-1.63,3.91-2.23,6.33-2.49Z"/>
    <path class="cls-1" d="M789.08,104.46,798.31,99l.49.94-8.4,7.06-10-3.21.28-1.19Z"/>
    <path class="cls-1" d="M151.89,329.38v-5.86h26.6v5.86Zm.46-3.67c5.27,3.11,21.85,2.84,24.78,0Z"/>
    <path class="cls-1" d="M178.61,295.88v5.86H151.94v-5.86Zm-1.91,3.62.07-1.48H153.65v1.48Z"/>
    <path class="cls-1" d="M178.55,305.37v5.54H152l-.35-5.54Zm-1.84,3.47,0-1.36h-23l0,1.36Z"/>
    <path class="cls-1" d="M178.64,314.4v5.68H152V314.4Zm-26.12,2.11c5,3,21.51,2.8,24.7,0Z"/>
    <path class="cls-1" d="M796,278.83h58.17v.78H796.05Z"/>
    <path class="cls-1" d="M796,215.48h58.28q0,.44,0,.88H796Z"/>
    <path class="cls-1" d="M796,269.78h58.14v.78H796.07Z"/>
    <path class="cls-1" d="M854,252.66H796v-.86h58Z"/>
    <path class="cls-1" d="M795.94,224.39H854v.87H796Z"/>
    <path class="cls-1" d="M854,243.67H796v-.79h58Z"/>
    <path class="cls-1" d="M796,260.76h57.93v.85H796Q796,261.19,796,260.76Z"/>
    <path class="cls-1" d="M796,233.53h57.94v.86H796Z"/>
    <path class="cls-1" d="M407.86,155.06v-11c3.4.49,7.12.06,9.25,1.7,1.32,1,1.32,6.43,0,7.62C415.19,155,411.46,154.53,407.86,155.06Zm7.91-9.46c-2.57.69-4.79.7-6,1.81-.78.74-.65,4,.11,4.48,1.52,1,3.75.77,5.86,1.07Z"/>
    <path class="cls-1" d="M417.36,132.33c1.25,10,.58,10.67-9.41,9.09-.11-1.35-.26-2.79-.32-4.23s0-2.94,0-4.86ZM415.74,140V134h-6V140Z"/>
    <path class="cls-1" d="M406.92,119.45h10.92c-.31,3.17.16,6.7-1.25,9.14-.71,1.22-6.21,1.51-7.16.32C407.7,126.75,407.77,123.17,406.92,119.45Zm8.84,1.86c-6.84-.58-7.19-.17-5.6,5.89h5.6Z"/>
    <path class="cls-1" d="M413.69,239.6l-.26-5c2.07-.09,3.83-.23,5.58-.24,12,0,24,.11,35.93-.08,4.12-.06,4.92,1.57,3.8,5.36Zm2.07-3.18v1H456.8v-1Z"/>
    <path class="cls-1" d="M413.43,202.31c14.81,0,28.92,0,43,0,4.05,0,2.52,2.84,2.46,5.26H413.68Zm2.33,2.06v1.09h41l0-1.09Z"/>
    <path class="cls-1" d="M458.63,271.65H413.71l-.27-5c1.73-.14,3.15-.36,4.57-.36,12.31,0,24.61.09,36.92-.08C459,266.2,460,267.71,458.63,271.65Zm-1.79-1.93,0-1.1H415.75v1.1Z"/>
    <path class="cls-1" d="M413.73,314.65l-.33-5.56h11.09c10.46,0,20.93-.07,31.39.12,1.12,0,2.2,1.6,3.31,2.46-.8,1-1.58,2.85-2.39,2.86C442.55,314.7,428.31,314.65,413.73,314.65Zm2-3.46c6,2.67,38.61,2.09,41.15,0Z"/>
    <path class="cls-1" d="M413.39,298.33h42.69c4.31,0,3,2.74,2.75,5.34H413.79Zm2.39,2.14v1h41v-1Z"/>
    <path class="cls-1" d="M413.69,218.62V213h16.06c8.63,0,17.26-.11,25.88.13,1.22,0,2.39,1.75,3.58,2.69-1.06.92-2.11,2.63-3.18,2.64C442.12,218.68,428.2,218.62,413.69,218.62Zm2.11-3.38.06,1.06h40.93v-1.06Z"/>
    <path class="cls-1" d="M414,245.08c14.13,0,28.2-.06,42.27.13,1,0,1.95,1.84,2.92,2.83-1.11.87-2.19,2.44-3.33,2.49-6,.25-11.95.12-17.92.12-6.8,0-13.61-.12-20.41,0C413.87,250.78,412.67,249.38,414,245.08Zm1.76,2.05.08,1.76c13.64,0,27.29.17,40.93-.13l0-1.63Z"/>
    <path class="cls-1" d="M413.94,277.11c14.35,0,28.59,0,42.83.12.82,0,2.33,1.89,2.24,2.78a3.77,3.77,0,0,1-2.63,2.53,88.93,88.93,0,0,1-9.45.13c-9.79,0-19.59-.1-29.38,0C413.88,282.78,412.76,281.36,413.94,277.11Zm1.86,2.13v1h41v-1Z"/>
    <path class="cls-1" d="M458.78,196.83h-45l-.23-4.36c.71-.34,1.13-.72,1.56-.73,13.6-.08,27.21-.11,40.82-.18C459.91,191.54,459.4,193.93,458.78,196.83Zm-2-1.77c-5.59-2.6-38.37-2.1-41.22,0Z"/>
    <path class="cls-1" d="M413.59,228.84v-4.77H459v4.77Zm2.27-3,0,1h40.87v-1Z"/>
    <path class="cls-1" d="M458.74,260.89H413.66v-5.22H430.2c8.14,0,16.29.12,24.42-.06C458.24,255.54,460.16,256.39,458.74,260.89Zm-2-1.86v-.9h-41v.9Z"/>
    <path class="cls-1" d="M413.58,292.9v-5.19h7.9c11.11,0,22.23.09,33.34,0,3.76,0,5.24,1.17,3.83,5.22Zm2.29-3.06-.06,1h40.9v-1Z"/>
    <path class="cls-1" d="M344.29,187.59c5-1.15,4.68,2.06,5,5.49.37,4.43-1.85,4.61-5.33,4.82-4.41.26-5.08-1.57-5.22-5.45C338.54,187.91,340.37,186.81,344.29,187.59Zm3.76,5.85-.16-2.23c-1.42-.65-3-2-4.21-1.76s-2.61,1.92-3,3.22c-.64,2.47.94,3.88,3.37,3.27C345.54,195.6,346.75,194.31,348.05,193.44Z"/>
    <path class="cls-1" d="M349,178.74c1.08,4.69-1.61,5-5.31,5.13-4.07.15-5-1.33-5-5.16,0-4.06,1.13-5.42,5.34-5.37S350,174.51,349,178.74Zm-4.2-4.16-2.21.11c-.68,1.43-1.71,2.79-2,4.29-.48,2.89,1.72,3.53,3.74,2.88,1.22-.39,2.77-2.14,2.79-3.31S345.7,175.9,344.85,174.57Z"/>
    <path class="cls-1" d="M349.06,206.31c.76,3.87-.27,5.78-4.83,5.64-3.89-.11-5.56-.76-5.53-5.18,0-4.16,1.11-5.5,5.29-5.34C347.53,201.57,350.08,201.81,349.06,206.31Zm-4-3.6-2.21,0c-.74,1.39-2.14,2.84-2,4.14.11,1.15,1.76,2.71,3,3.08,2.27.67,4.06-.43,3.46-3.12C347,205.36,345.83,204.08,345.05,202.71Z"/>
    <path class="cls-1" d="M344.18,169.54c-4.73,1.13-5.4-1.23-5.46-5.13s1-5.21,5.06-5.14,5.69.81,5.51,5.21C349.14,168.38,348.6,170.83,344.18,169.54Zm.86-9-2.2,0c-.74,1.38-1.86,2.69-2.15,4.17-.53,2.71,1.37,3.74,3.57,3.07,1.26-.38,2.87-2,3-3.2S345.82,161.9,345,160.54Z"/>
    <path class="cls-1" d="M192.2,308.56V298.29h10.57v10.27Zm8.67-8.51H194v6.57C201.4,307.89,201.83,307.49,200.87,300.05Z"/>
    <path class="cls-1" d="M260.83,314.44v10.08H250.2V314.44ZM259,323v-6.89h-7.06V323Z"/>
    <path class="cls-1" d="M289.63,324.7H279.2V314.46h10.43Zm-1.69-9-7,.34v7h7Z"/>
    <path class="cls-1" d="M231.77,324.65H221.17V314.33h10.59Zm-10-9.48c1,3.53,1,6.18,2.37,7.69.77.86,4.34.55,5.34-.49s1.21-4.75.37-5.36C228.2,315.81,225.57,315.91,221.82,315.17Z"/>
    <path class="cls-1" d="M279.26,298.26h10.3v10.36h-10.3Zm1.6,9.35c2.79-.56,5.31-.48,6.92-1.64.88-.64.94-4.46.15-5-1.8-1.16-4.34-1.17-7.07-1.75Z"/>
    <path class="cls-1" d="M202.76,314.37v10.22H192.21V314.37Zm-1.72,2c-7.45-1.54-8.27-.74-6.74,6.5H201Z"/>
    <path class="cls-1" d="M221.09,308.5V298.37h10.62V308.5Zm1.07-8.66c.56,2.79.39,5.44,1.63,6.86.83,1,4.72.9,5.37,0,1.16-1.66.91-4.3,1.3-6.84Z"/>
    <path class="cls-1" d="M260.73,298.3v10.25H250.14V298.3Zm-9.65,1.57c.64,2.84.52,5.48,1.79,6.84.88.94,4.76.84,5.35-.06,1.12-1.74.86-4.37,1.19-6.78Z"/>
    <path class="cls-1" d="M264.71,324.57v-10.1h10.38v10.1Zm1.72-1.68h6.86V316h-6.86Z"/>
    <path class="cls-1" d="M246.08,308.7H235.91V298.24h10.16Zm-1.69-1.77v-6.87h-6.87v6.87Z"/>
    <path class="cls-1" d="M275.19,298.4v10.14H264.88V298.4Zm-8.74,8.42h7V300h-7Z"/>
    <path class="cls-1" d="M206.71,324.64V314.4H217v10.23Zm8.78-8.59h-6.84v6.84h6.84Z"/>
    <path class="cls-1" d="M246.1,324.75H235.89v-10.3H246.1ZM244.19,323c1.15-7.75.51-8.32-6.55-6.61V323Z"/>
    <path class="cls-1" d="M206.7,308.56v-10.2h10.44v10.2Zm8.79-8.66c-1.55-.12-2.52-.27-3.5-.25s-2.2.21-3.2.31c-1.3,7.47-.6,8.14,6.69,6.48Z"/>
    <path class="cls-1" d="M740.7,296.55v7.15h-7.5v-7.15Z"/>
    <path class="cls-1" d="M809,296.5h7.22v7.24H809Z"/>
    <path class="cls-1" d="M793,303.64v-7h7.17v7Z"/>
    <path class="cls-1" d="M727.27,296.57v7.05h-7.33v-7.05Z"/>
    <path class="cls-1" d="M831.72,303.79h-7.19v-7.21h7.19Z"/>
    <path class="cls-1" d="M232.37,227.58H215.62l0-.86h16.76Z"/>
    <path class="cls-1" d="M215.64,213.69h16.75v.87H215.6Z"/>
    <path class="cls-1" d="M215.63,168.7h16.75l0,.68H215.59Z"/>
    <path class="cls-1" d="M215.57,181.56h16.85l.06.73H215.61Z"/>
    <path class="cls-1" d="M232.35,156.71H215.59l0-.74h16.76Z"/>
    <path class="cls-1" d="M232.38,195.4h-16.7l0-.82h16.74Z"/>
    <path class="cls-1" d="M215.56,149.45h16.76v.68H215.58Z"/>
    <path class="cls-1" d="M215.63,207.34h16.72l0,.87H215.7Z"/>
    <path class="cls-1" d="M215.72,220.19h16.59l0,.77H215.7Z"/>
    <path class="cls-1" d="M232.33,201.82H215.61l0-.87h16.66Z"/>
    <path class="cls-1" d="M232.26,163.23H215.67v-.88h16.65Z"/>
    <path class="cls-1" d="M215.72,142.9h16.54l0,.87H215.71Z"/>
    <path class="cls-1" d="M215.76,188h16.57v.88H215.69Z"/>
    <path class="cls-1" d="M811,195.4h33.68v.78H811Z"/>
    <path class="cls-1" d="M844.5,160.27H811.1v-.88h33.47Z"/>
    <path class="cls-1" d="M811.08,150.25h33.43V151H811.09Z"/>
    <path class="cls-1" d="M811,177.39h33.6v.74H811Z"/>
    <path class="cls-1" d="M844.52,187.36H811.06v-.88h33.52Z"/>
    <path class="cls-1" d="M811.06,168.33h33.49l0,.71H811.07Z"/>
    <path class="cls-1" d="M470.83,296.33v-36.9c6.65-1.88,7.21-1.48,7.22,5.22q0,12.93,0,25.87C478,297.09,478,297.09,470.83,296.33Zm1.43-19.13c0,5-.1,10,.09,15,0,.94,1.26,1.84,1.94,2.76.68-.94,1.94-1.87,2-2.81q.22-14.48,0-29c0-.92-1.32-1.82-2-2.73-.65.93-1.83,1.83-1.87,2.79C472.15,267.87,472.26,272.54,472.26,277.2Z"/>
    <path class="cls-1" d="M493.31,258.48H500v37.26h-6.71Zm5.35,19c0-4.81.13-9.62-.1-14.42,0-1.07-1.34-2.07-2.06-3.11-.64,1-1.83,1.92-1.85,2.89-.14,9.45-.16,18.9,0,28.35,0,1,1.39,2.06,2.13,3.09.62-1.12,1.73-2.22,1.78-3.37C498.79,286.48,498.66,282,498.66,277.52Z"/>
    <path class="cls-1" d="M482,258.69h6.93v37.37H482Zm1.41,18.49c0,4.83-.1,9.65.08,14.47,0,1,1.13,2,1.74,3,.76-1,2.17-2,2.19-3q.25-14.22,0-28.45c0-1-1.44-2-2.22-3-.59,1-1.66,2-1.7,3C483.3,267.86,483.41,272.52,483.4,277.18Z"/>
    <path class="cls-1" d="M576.9,309.53H553.62v-.83h23.29Z"/>
    <path class="cls-1" d="M553.64,300.72h23.27l0,.78H553.68Z"/>
    <path class="cls-1" d="M576.87,285.79H553.66l0-.83H576.8Z"/>
    <path class="cls-1" d="M576.87,293.8H553.62V293h23.27Z"/>
    <path class="cls-1" d="M576.82,277.85H553.51V277h23.23Z"/>
    <path class="cls-1" d="M576.39,269.85H553.61l0-.76h23.17Z"/>
    <path class="cls-1" d="M695.29,271.86h7.55v7.34l-7.15.41Z"/>
    <path class="cls-1" d="M697.55,252.42v-7.33H705v7.33Z"/>
    <path class="cls-1" d="M716.81,271.84h7.34v7.28h-7.34Z"/>
    <path class="cls-1" d="M713.42,279.28H706.2V272h7.23Z"/>
    <path class="cls-1" d="M520.58,150.81H510.14V140.5h10.44ZM518.64,149v-6.8h-6.71V149Z"/>
    <path class="cls-1" d="M510,130V119.69h10.34V130Zm9.39-1.69c-.47-2.62-.25-5.24-1.45-6.72-.75-.92-4.58-.85-5.34.11-1.17,1.48-.9,4.1-1.3,6.61Z"/>
    <path class="cls-1" d="M657,267.77v8.65c-2.47-.26-5.15,0-7.16-1-.89-.46-1.2-4.63-.34-5.3C651.22,268.74,653.92,268.61,657,267.77Z"/>
    <path class="cls-1" d="M118.68,275.69h-8.9v-9h8.9Zm-7.3-1c2.29-.62,4.29-.65,5.4-1.66.68-.62.53-3.48-.21-4-1.2-.88-3.19-.68-5.19-1Z"/>
    <path class="cls-1" d="M118.77,236.9v9h-9v-9Zm-7.39,7.29c1.44.09,2.26.21,3.08.16a17.46,17.46,0,0,0,2.22-.38c.78-6,.34-6.34-5.3-4.89Z"/>
    <path class="cls-1" d="M118.59,290.65h-8.87v-9.13h8.87Zm-7.54-8,.39,6.73c2.11-.46,4.11-.37,5.25-1.32.71-.6.71-3.45,0-4C115.53,283.07,113.53,283.17,111,282.64Z"/>
    <path class="cls-1" d="M109.81,251.66h8.85v9.14h-8.85Zm8.09,7.46c-.94-2.49-1.25-4.39-2.31-5.67-.48-.58-3.32-.31-3.56.25-.7,1.58-.61,3.51-.85,5.42Z"/>
    <path class="cls-1" d="M109.53,230.81v-8.26c8.95-2.54,10.33-1.33,9,8.26Zm1.84-.7c2.4-.76,4.26-.93,5.46-1.9.62-.51.55-3.25,0-3.59-1.46-.85-3.39-.92-5.43-1.37Z"/>
    <path class="cls-1" d="M667.59,193.82v-10h10.19v10Zm.49-.79c3.84-.74,6.42-.57,7.89-1.77.85-.69.52-4-.44-5.33-.71-.94-4.16-1.23-4.88-.44C669.37,186.91,669.22,189.36,668.08,193Z"/>
    <path class="cls-1" d="M691.11,169.64v10.2H680.92v-10.2ZM690,178.15c-.55-2.62-.47-5.1-1.63-6.66-.62-.84-4.37-.76-4.94.09-1.09,1.61-.91,4.08-1.32,6.57Z"/>
    <path class="cls-1" d="M677.78,179.89H667.72v-10.2h10.06Zm-.73-2c-.78-2.59-.91-5.05-2.2-6.47-.73-.81-4.4-.52-4.88.33-1,1.73-.67,4.17-.91,6.45,2,.09,3.14.19,4.29.17C674.15,178.37,674.94,178.19,677.05,177.91Z"/>
    <path class="cls-1" d="M681,183.61h10v10.22H681Zm8.47,2.11c-7.37-1.17-8.13-.33-6.35,6.41h6.35Z"/>
    <path class="cls-1" d="M203,257.69v-9.21h9.83v9.21Zm8-1.62v-6h-6v6Z"/>
    <path class="cls-1" d="M436.22,158.74l12.54,17.92h-25Zm-9.07,16.17H445.4l-9.16-13Z"/>
  </g>
</svg>
