<svg id="Layer_1" data-name="Layer 1" xmlns="http://www.w3.org/2000/svg" viewBox="0 0 100.57 98.77">
  <defs>
    <style>
      .cls-1 {
        fill: #0d102e;
      }
    </style>
  </defs>
  <title>city</title>
  <path class="cls-1" d="M56.65,27h1.9v7.55H61.4v7.61h7.54V72.6H97.43v1.89H96.07v2.09h4.21v22.8H1.61V63.3H-.28c.08-.24.14-.42.2-.58,1.09-2.8,2.19-5.59,3.26-8.39A.73.73,0,0,1,4,53.77q11.55,0,23.11,0h.71V23.48H26.74l0-.1c.13-.09.25-.18.38-.26,2.15-1.21,4.3-2.42,6.47-3.61a1.32,1.32,0,0,0,.7-.89Q36.69,9.75,39.16.88l.09-.26c.08.21.13.34.17.47q2.44,8.78,4.87,17.57a1.25,1.25,0,0,0,.67.84c2.3,1.26,4.58,2.55,7,3.93H50.72v18.7h3.07V34.57h2.86ZM37.87,23.36v72h2.76v-72ZM34,95.41v-72h-2.8v.77c0,9.77,0,19.54,0,29.32a12.27,12.27,0,0,0,1,5.29c.66,1.45,1.17,3,1.78,4.53H32.08V95.41ZM44.55,23.36v72h1.76V42.15h1V23.36ZM5.25,76.58H28V72.83H5.25ZM28,80.43H5.27v3.74H28Zm0-15.2H5.25v3.71H28ZM5.25,91.76H28V88H5.25Zm81.82-3.7H78.39v2.77h8.69ZM76.42,83.29H67.73v2.77h8.69Zm2,0v2.79H87V83.28Zm-2,7.56V88.06H67.73v2.78Zm21.3-2.79H89.06v2.78h8.65Zm0-2V83.28H89v2.79ZM76.43,92.8H67.74v2.77h8.69Zm1.93,2.77h8.7V92.81h-8.7Zm-1.93-17H67.74V81.3h8.69Zm10.64,0h-8.7v2.77h8.7Zm2,2.78h8.66V78.53H89ZM97.7,95.59V92.81H89v2.78ZM77.05,75.64H82.7c1.75,0,3.5,0,5.24,0,.16,0,.45-.18.47-.29a15.26,15.26,0,0,0,0-1.55H77.05ZM51.88,50.9V45.27H49.1V50.9Zm4.73,0V45.26H53.84v5.65Zm2-5.65v5.63h2.79V45.25Zm7.54,5.65V45.25H63.37V50.9ZM61.49,89H58.71v5.63h2.78ZM56.7,94.63V89H53.93v5.63Zm0-23.13H53.94v5.64h2.78Zm-2.79-3.13H56.7V62.75H53.93Zm4.75,0h2.8V62.76h-2.8Zm0,8.76h2.79V71.51H58.7Zm-4.75,3.12v5.64h2.77V80.25Zm2.78-20.62V54h-2.8v5.63Zm4.76,0V54H58.7v5.62Zm0,26.25V80.26H58.7v5.62ZM49.2,89v5.65H52V89Zm17-20.59V62.75H63.45v5.63Zm-17-5.64v5.64H52V62.74Zm0,8.76v5.63H52V71.5ZM52,54H49.21v5.62H52Zm0,31.89V80.25H49.2v5.65ZM66.21,59.65V54H63.46v5.63Zm0,16.93V71.51H63.47v5.65h1.59l.12-.52ZM18.79,57.43H15v3.74h3.75Zm7.6,0H22.65v3.72h3.73ZM11,57.42H7.26v3.73H11ZM65.1,89H63.45v5.64H65.1Zm-1.63-8.74v5.63h1.62V80.24Zm5.65-5.78-.18.14c0,.57,0,1.13,0,1.7,0,.1.15.2.22.3.08-.1.21-.2.22-.3a13.14,13.14,0,0,0,0-1.47C69.38,74.7,69.21,74.58,69.12,74.46Z" transform="translate(0.28 -0.62)"/>
</svg>
