<svg id="Layer_1" data-name="Layer 1" xmlns="http://www.w3.org/2000/svg" viewBox="0 0 93.42 87.67">
  <defs>
    <style>
      .cls-1 {
        fill: #10132e;
      }
    </style>
  </defs>
  <title>fit22</title>
  <g>
    <path class="cls-1" d="M50,72.65c-1.19,3.41-2.24,6.41-3.27,9.42-.89,2.61-1.75,5.24-2.63,7.86-.65,1.9-1.68,3.47-3.84,3.81-3.7.58-6.41-2.6-5.33-6.36,1.59-5.54,3.35-11,5-16.55a13.15,13.15,0,0,0,.54-3.49c.07-5.49.1-11,0-16.46a5.42,5.42,0,0,0-.84-2.76c-4-6.06-8-12.07-12-18.1a13.11,13.11,0,0,1-.88-1.47A3.34,3.34,0,0,1,27.78,24a3.58,3.58,0,0,1,4.65.78c.86,1.07,1.59,2.26,2.36,3.41Q39.4,35.09,44,42c.43.64.82,1.47,1.74,1.08a14.68,14.68,0,0,0,2.34-1.62c-3.08-1.35-5.32-3-5.91-5.84a11.53,11.53,0,0,1,.1-5.18c.93-3.43,4.28-5.54,8-5.48a8.11,8.11,0,0,1,7.55,5.58,8.3,8.3,0,0,1-.52,6.53c-1.07,2-2.81,3.3-5.41,4.34a13.8,13.8,0,0,0,2.32,1.67c1,.42,1.37-.52,1.82-1.18,3.65-5.47,7.28-11,11-16.39a5.3,5.3,0,0,1,2.51-1.91A3.08,3.08,0,0,1,73.18,25a3.32,3.32,0,0,1-.08,3.9c-2.21,3.4-4.46,6.77-6.71,10.14-2,3.06-4.12,6.08-6.1,9.17a5,5,0,0,0-.77,2.5c-.06,5.39-.06,10.79,0,16.18a16,16,0,0,0,.76,4.46c1.62,5.13,3.37,10.22,5.05,15.33.72,2.19.63,4.26-1.17,5.94a4.23,4.23,0,0,1-6.34-.31A11.48,11.48,0,0,1,56.11,89C54.09,83.72,52.13,78.4,50,72.65Z" transform="translate(-3.29 -6.17)"/>
    <path class="cls-1" d="M92.23,12.28h4.48v13.9H92.3v5.41H83.92V21.42H16.16V31.57H7.79V26.27H3.29v-14H7.71V6.17h8.41V16.38h67.7V6.19h8.41Z" transform="translate(-3.29 -6.17)"/>
  </g>
</svg>
