<svg id="Layer_1" data-name="Layer 1" xmlns="http://www.w3.org/2000/svg" viewBox="0 0 71.22 98.87">
  <defs>
    <style>
      .cls-1 {
        fill: #ff5353;
      }
    </style>
  </defs>
  <title>fitness</title>
  <g>
    <path class="cls-1" d="M63.47,86.19c-8.29,4.53-16.67,4.67-25.16,1.09a31.41,31.41,0,0,1-11.5-8.37,2.13,2.13,0,0,0-1.24-.44c-1.32-.19-2.67-.21-4-.48C17,77,15,74.64,14.52,70a28.09,28.09,0,0,1,1.65-12.12A48.92,48.92,0,0,1,26.83,40c1.72-1.85,3.33-3.8,5-5.67-7.48-9.31-5.72-20.72.66-27.43A20.43,20.43,0,0,1,66.48,28c-2.74,7.62-11.67,15.79-24.67,12.75C41,43,40.15,45.2,39.33,47.43a1.14,1.14,0,0,0-.07.69A17.59,17.59,0,0,1,39,60c3.5-1.46,6.85-2.45,10.47-1.9a17.55,17.55,0,0,1,9.15,4.69c6.22-6.83,18.88-6.74,25.28,2.44a17.68,17.68,0,0,1,1.59,3,2.28,2.28,0,0,1-.14,1.44C78.59,59.82,70.07,58,59.64,63.62c1.54,2.11,3.44,3.75,4.12,6.12l-.43.35c-.38-.3-.77-.57-1.12-.9-1.71-1.6-3.29-3.35-5.13-4.79-6-4.71-12.48-4.89-19.57-1-1.38.76-2.71,1.62-4.08,2.39a10.56,10.56,0,0,1-1.65.53c.37-.68.5-1,.66-1.2a.92.92,0,0,1,.32-.28c4.36-2.45,4.91-6.73,5.27-11.07.1-1.18,0-2.37,0-3.67-1.11.78-1.37,2.48-3.32,2.71.32-.72.53-1.15.72-1.6,1.38-3.3,2.74-6.61,4.14-9.9.37-.87.21-1.28-.69-1.76-2-1-3.83-2.29-6-3.63-2.9,3.72-6.19,7.51-9,11.63A39.55,39.55,0,0,0,17,65.43,23.41,23.41,0,0,0,17.2,71a5.64,5.64,0,0,0,4.24,4.75c3.59,1.2,7.26.94,10.94.66a4.55,4.55,0,0,1,1.92.23c-1.79,1.53-4.12,1.19-6.16,1.79,0,.12,0,.24.08.29,9.19,6.95,19.31,10.15,30.83,7.49,4.07-.94,4.46-1.59,3.61-5.67-.22-1-.55-2.06-.83-3.09l.41-.27c.39.39.93.71,1.16,1.18a14.55,14.55,0,0,1,1.32,3.46,42.41,42.41,0,0,0,6.9,15.94,15.43,15.43,0,0,1,.84,1.68C69.43,99,65.64,93.21,63.47,86.19Zm.86-65.45A17.37,17.37,0,1,0,46.84,38,17.34,17.34,0,0,0,64.33,20.73Z" transform="translate(-14.39 -0.56)"/>
    <path class="cls-1" d="M53.85,77.74c-6.1-.27-11.18-1.28-15.3-5.09a4.26,4.26,0,0,1-.7-.72c-.11-.17-.18-.56-.09-.63a1.22,1.22,0,0,1,.74-.18c.17,0,.34.16.5.26,5.44,3.47,11.51,4.45,17.81,4.54a10.08,10.08,0,0,1,1.43,0c.27,0,.5.3.75.46-.21.22-.39.59-.63.64C56.63,77.34,54.89,77.58,53.85,77.74Z" transform="translate(-14.39 -0.56)"/>
    <path class="cls-1" d="M67.7,73.65c.09.39.21.77.28,1.16a23.42,23.42,0,0,0,5.48,11.64c1.44,1.65,2.74,3.43,4.06,5.19a5.76,5.76,0,0,1,.56,1.44l-.36.24a7.53,7.53,0,0,1-1.06-.8c-1.57-1.67-3.09-3.39-4.66-5.06a18.64,18.64,0,0,1-5.12-11.7,12.07,12.07,0,0,1,.2-2.11Z" transform="translate(-14.39 -0.56)"/>
    <path class="cls-1" d="M30.83,63.68A6.5,6.5,0,0,1,26,66.62c-1.7.3-3.55.67-5.14-.79Z" transform="translate(-14.39 -0.56)"/>
    <path class="cls-1" d="M47.25,26a5.07,5.07,0,1,1,5.15-5A5.09,5.09,0,0,1,47.25,26Z" transform="translate(-14.39 -0.56)"/>
  </g>
</svg>
