<svg id="Layer_1" data-name="Layer 1" xmlns="http://www.w3.org/2000/svg" viewBox="0 0 100 100">
  <defs>
    <style>
      .cls-1 {
        fill: #1cacba;
      }

      .cls-2 {
        fill: #fff;
      }
    </style>
  </defs>
  <title>fouricon</title>
  <circle class="cls-1" cx="24.01" cy="24.01" r="24.01"/>
  <circle class="cls-1" cx="75.99" cy="24.01" r="24.01"/>
  <circle class="cls-1" cx="24.01" cy="75.99" r="24.01"/>
  <circle class="cls-1" cx="75.99" cy="75.99" r="24.01"/>
  <g>
    <path class="cls-2" d="M24.93,27.81a15.38,15.38,0,0,1,1.2,1.34,3.33,3.33,0,0,1,.61,1.28c.27,1.49.47,3,.69,4.49a1.44,1.44,0,0,1-1.07,1.73l-.17,0a1.46,1.46,0,0,1-1.57-1.34v0c-.19-1.31-.38-2.62-.59-3.92a1.54,1.54,0,0,0-.35-.73c-.81-.91-1.62-1.83-2.48-2.69a2.15,2.15,0,0,1-.59-2.06c.33-2,.65-4,1-6a1.9,1.9,0,0,0,0-.21c-.56.18-1.1.34-1.63.54-.1,0-.16.26-.17.4-.08,1.26-.14,2.53-.21,3.79a1.35,1.35,0,0,1-.86,1.27,1.18,1.18,0,0,1-1.4-.34,1.55,1.55,0,0,1-.34-.91c0-1.71.16-3.41.25-5.11A1.44,1.44,0,0,1,18.39,18c1.21-.37,2.41-.75,3.61-1.14a1.6,1.6,0,0,0,.59-.35,2.38,2.38,0,0,1,4,2.11c-.43,2.61-.84,5.22-1.28,7.83A12.93,12.93,0,0,1,24.93,27.81Z"/>
    <path class="cls-2" d="M28.73,37.17l1.78-6.73L32.73,22a1.46,1.46,0,0,1,.9-1.11c.3-.12.57-.31.86-.44a1,1,0,0,1,.93,1.78h-.08a2.35,2.35,0,0,0-1.59,2c-1.13,4.5-2.34,9-3.53,13.47-.27,1-.31,1-1.38,1H13c-.6,0-1-.31-1-.79s.37-.79,1-.79Z"/>
    <path class="cls-2" d="M25.92,15.15a2.93,2.93,0,1,1,.09,0Z"/>
    <path class="cls-2" d="M20.09,27.4c.59.67,1.16,1.33,1.76,2a.52.52,0,0,1,.13.72c-.21.37-.35.78-.53,1.16a1.48,1.48,0,0,1-1.92.83l-.08,0-4.18-1.66a1.43,1.43,0,1,1,1.06-2.63l3,1.21Z"/>
    <path class="cls-2" d="M26.61,21.71c.12-.76.26-1.46.33-2.17a.89.89,0,0,1,.79-.91c1.06-.28,2.1-.66,3.15-1a1.31,1.31,0,1,1,1,2.41l-.23.07L27.07,21.6Z"/>
  </g>
  <g>
    <path class="cls-2" d="M71.72,28.2,76,32.56a1.56,1.56,0,0,1,.13,2.2l-.13.13a4,4,0,0,1-.59.53,1.53,1.53,0,0,1-2-.25l-5.19-5.31-3.39-3.47a1.56,1.56,0,0,1-.12-2.2l.12-.12a4.54,4.54,0,0,1,.58-.52,1.53,1.53,0,0,1,2,.22Z"/>
    <path class="cls-2" d="M80.28,19.83l-4.33-4.44a1.54,1.54,0,0,1,0-2.18l0,0a5.08,5.08,0,0,1,.64-.57,1.52,1.52,0,0,1,1.92.17l.09.09,8.59,8.8a1.51,1.51,0,0,1,.19,2,3.79,3.79,0,0,1-.95.88,1.48,1.48,0,0,1-1.85-.29l-4.33-4.44Z"/>
    <path class="cls-2" d="M66.51,33.28,64.27,31A1.44,1.44,0,0,1,64,29a1.76,1.76,0,0,1,1.56-.93,1.39,1.39,0,0,1,1,.42l4.73,4.85a1.43,1.43,0,0,1,0,2,3.22,3.22,0,0,1-.68.55,1.34,1.34,0,0,1-1.6-.23c-.81-.81-1.6-1.64-2.4-2.46Z"/>
    <path class="cls-2" d="M83.1,17.08l-2.34-2.4a1.45,1.45,0,0,1,0-2,3.07,3.07,0,0,1,.68-.56,1.42,1.42,0,0,1,1.73.33L86.68,16l1.11,1.12a1.44,1.44,0,0,1,.06,2l-.06.06a3.31,3.31,0,0,1-.54.47,1.43,1.43,0,0,1-1.78-.23Z"/>
    <path class="cls-2" d="M78.1,20.24l1.64,1.68L73.8,27.7,72.17,26Z"/>
    <path class="cls-2" d="M66.33,33.45l1,1.07c.13.13.14.22,0,.35l-.82.79a.85.85,0,0,1-1.2,0l0,0L64.11,34.4a.84.84,0,0,1,0-1.19h0c.28-.31.59-.58.88-.88a.2.2,0,0,1,.3,0l.53.54Z"/>
    <path class="cls-2" d="M85.64,14.57c-.35-.36-.7-.73-1.06-1.08-.12-.11-.13-.19,0-.31l.79-.76a.84.84,0,0,1,1.19,0l0,0q.66.63,1.28,1.31a.82.82,0,0,1,0,1.16l0,0-.8.78c-.11.11-.18.11-.29,0C86.37,15.31,86,14.94,85.64,14.57Z"/>
    <path class="cls-2" d="M77.53,19.25l.93-.91,3.26,3.34-.93.91Z"/>
    <path class="cls-2" d="M74.46,28.78l-.92.89-3.27-3.35.92-.89Z"/>
  </g>
  <path class="cls-2" d="M17.18,73.26V72.21c.15-.89.28-1.78.47-2.66a5,5,0,0,1,.83-2.35c.71-.83,1.43-1.65,2.18-2.45a2.8,2.8,0,0,1,2.27-1.19.6.6,0,0,0,.45-.38,11.43,11.43,0,0,0,.06-1.9,1.77,1.77,0,0,1,1-1.82c.07,0,.1-.17.14-.25H25a2.07,2.07,0,0,0,1.18.4,2.52,2.52,0,0,1,1.31.56,1.23,1.23,0,0,1,.4,1.42c-.15.42-.33.84-.5,1.25a6.46,6.46,0,0,1-.78,1.26.53.53,0,0,1-.71.25h0a.5.5,0,0,0-.25.05c-.09.05,0,.2.07.25a3.63,3.63,0,0,0,.82.63,2.1,2.1,0,0,1,1.11,1.24,5.64,5.64,0,0,0,.38.67h.16V65.8c0-.46-.06-.61-.49-.68-.18,0-.34-.2-.51-.31v-.13l.63-.07L27.43,63l.12-.1c.24.08.55.1.71.27a1.77,1.77,0,0,1,.45.81,15.21,15.21,0,0,1,.55,4.71c-.06.78-.34,1-1,.63a17.52,17.52,0,0,1-1.65-1.17,5.22,5.22,0,0,0-.77,1,7.15,7.15,0,0,0-.35,1.44c.33-.1.56-.18.81-.23,1.07-.22,2.13-.47,3.21-.62.6-.08,1,.26,1,.87a2.31,2.31,0,0,1,0,.76c-.18,1.11-.43,2.21-.58,3.33a16.07,16.07,0,0,0-.22,2.83,8.89,8.89,0,0,0,.5,2.29,1.19,1.19,0,0,1,.13.67,1.34,1.34,0,0,0,.47,1.41v.29a.45.45,0,0,1-.56.3l-.06,0a2.91,2.91,0,0,1-1.87-1.35q-.51-.85-1.08-1.66c-.42-.61-.42-.69.2-1.12l.16-.1a1.27,1.27,0,0,0,.66-1.49c-.06-.54-.11-1.07-.16-1.61-.06-.76-.11-1.52-.17-2.39-.64.42-1.21.81-1.8,1.17a.48.48,0,0,0-.23.64l0,0a10.56,10.56,0,0,1,.6,4.55c-.06.65-.07,1.3-.1,2a5.78,5.78,0,0,1,0,.89c-.18.87-.42,1.72-.59,2.59-.28,1.45-.53,2.9-.77,4.35a.63.63,0,0,0,.12.47,3.32,3.32,0,0,0,.54.43c-.08,0-.39.12-.4.23a4.22,4.22,0,0,0-.19,2.06c.07.19-.08.46-.12.69h-.29a3.17,3.17,0,0,1-1.28-1.61c-.21-.58-.42-1.16-.68-1.71-.39-.81-.37-.92.43-1.27a1.85,1.85,0,0,0,.39-.18.56.56,0,0,0,.23-.32c.06-.7.13-1.41.13-2.12a10.1,10.1,0,0,1,.38-3.06,4,4,0,0,0,.16-1.25,11,11,0,0,0-1-4,4.24,4.24,0,0,0-1.28-1.84,3.12,3.12,0,0,1-1.1-3.71,3.17,3.17,0,0,0,.39-1.26c0-1.27-.07-2.53-.12-3.8a.75.75,0,0,0-.1-.22c-.67.54-1.32,1-2,1.57a1,1,0,0,0-.27.44c-.31,1-.6,2-.9,3a.85.85,0,0,0,.25.95,1.94,1.94,0,0,1,.51,1.2l-.15.08L18.4,73h-.13v1.32a1.28,1.28,0,0,1-.17.39,1.33,1.33,0,0,1-.43-.21,1.61,1.61,0,0,1-.22-.5A5.91,5.91,0,0,1,17.18,73.26Z"/>
  <path class="cls-2" d="M86.71,78.67h-8v8H73.3v-8h-8V73.3h8v-8h5.36v8h8Z"/>
</svg>
