<svg id="Layer_1" data-name="Layer 1" xmlns="http://www.w3.org/2000/svg" viewBox="0 0 95.26 144.78">
  <title>location</title>
  <path d="M49.65,90.76c-10.36-17.5-20.47-33.55-29.5-50.18A283.94,283.94,0,0,1,4.86,6.47c-8.8-23,6-52.51,34.2-59.19,26.89-6.36,53.64,11.6,58,38.45A45.62,45.62,0,0,1,94.39,9.26C83.74,38.08,67.09,63.6,49.65,90.76ZM75.13-7.56A25.3,25.3,0,0,0,50.2-32.83,25.32,25.32,0,0,0,24.88-7.45,25.13,25.13,0,0,0,50.06,17.5,25.14,25.14,0,0,0,75.13-7.56Z" transform="translate(-2.32 54.01)"/>
</svg>
