<svg id="Layer_1" data-name="Layer 1" xmlns="http://www.w3.org/2000/svg" viewBox="0 0 47.73 94.51">
  <defs>
    <style>
      .cls-1 {
        fill: #ff5353;
      }
    </style>
  </defs>
  <title>mobile</title>
  <path class="cls-1" d="M26.58,65.13q0-12.7,0-25.41c0-.26.11-.59-.3-.69-.06,0-.09-.22-.09-.34q0-3.07,0-6.15a.71.71,0,0,1,.1-.36c.08-.12.28-.21.29-.32,0-.4.17-1,0-1.16-.64-.5-.32-1.12-.34-1.66-.05-1.63,0-3.27,0-4.9,0-.25-.06-.53.3-.62.05,0,.1-.16.1-.24q0-1.95,0-3.89c0-.08,0-.21,0-.22-.53-.16-.34-.59-.35-.93,0-.77,0-1.54,0-2.3,0-.18.17-.36.25-.54a1.1,1.1,0,0,0,.13-.4c0-1.78,0-3.55,0-5.33a6.86,6.86,0,0,1,6.7-6.92c9.09,0,18.19,0,27.28,0h5.91a6.87,6.87,0,0,1,7,6.94q0,3.84,0,7.68c0,1.74,0,3.48,0,5.22,0,.16.17.31.25.47a1.35,1.35,0,0,1,.18.5c0,3,0,6.08,0,9.13,0,.29,0,.58,0,.86s0,.5-.31.61c-.08,0-.12.3-.12.45,0,2.79,0,5.57,0,8.36,0,1.88,0,3.77,0,5.65q0,13,0,25.92,0,7.89,0,15.79a6.8,6.8,0,0,1-4.8,6.58,7,7,0,0,1-2,.33q-14.07,0-28.14,0H33.6a6.86,6.86,0,0,1-7-7Q26.58,77.69,26.58,65.13Zm2.07-15.28q0,8,0,16,0,11.82,0,23.63a5.43,5.43,0,0,0,5.61,5.64H65.73a5.45,5.45,0,0,0,5.62-5.64q0-6.29,0-12.58,0-16.28,0-32.57,0-12.56,0-25.12c0-3.11,0-6.21,0-9.32a5.25,5.25,0,0,0-4.67-5.18c-1.48-.13-3-.07-4.46-.09-.64,0-.7.05-.77.69a1.67,1.67,0,0,1-1.77,1.7c-.3,0-.61,0-.91,0H47c-2.24,0-4.48,0-6.72,0C39,7,38.54,6.54,38.4,5.23a.53.53,0,0,0-.62-.56c-1.28,0-2.56,0-3.84,0a4.84,4.84,0,0,0-1,.12,5.27,5.27,0,0,0-4.28,5.38c0,3.68,0,7.37,0,11Q28.66,35.54,28.66,49.85ZM50.22,5.92h4.51c.35,0,.6-.2.55-.51S55,5,54.77,4.87s-.19,0-.28,0H46c-.4,0-.75.1-.75.54s.35.53.75.53Zm8.33-1.18a.66.66,0,0,0-.66.71.69.69,0,0,0,.66.62.72.72,0,0,0,.67-.68A.67.67,0,0,0,58.55,4.74Z" transform="translate(-26.14 -2.74)"/>
  <g>
    <path class="cls-1" d="M53.57,56.65H40.88a1.27,1.27,0,0,1-.23,0,.28.28,0,0,1-.24-.28s0-.09,0-.14q0-4.09,0-8.18,0-2.75,0-5.5,0-1.82,0-3.65c0-.27.1-.38.38-.38h2.79v.64H41v3.91H59.7v-3.9H56.93c0,.19,0,.39,0,.58,0,0,.06.07.11.09a1.18,1.18,0,0,1,.76,1.23A1.19,1.19,0,1,1,55.89,40L56,39.9c0,.34,0,.66,0,1a.62.62,0,0,0,.25.53.57.57,0,0,0,.78-.14.53.53,0,0,0-.14-.76c0,.13,0,.26,0,.38s-.12.38-.31.38-.32-.14-.32-.37q0-1.71,0-3.41a.32.32,0,0,1,.31-.36c.2,0,.32.13.32.35s0,.67,0,1h3c.31,0,.41.09.41.4q0,4.14,0,8.28,0,1.11,0,2.22s0,.08,0,.11a5.41,5.41,0,0,1,.69-.08,1.49,1.49,0,0,1,1.19.63A22.69,22.69,0,0,1,64,52.72a13.87,13.87,0,0,1,1.34,3,5.57,5.57,0,0,1,.22,2.33,3.05,3.05,0,0,1-1.35,2.13c-.86.61-1.7,1.24-2.56,1.85a4,4,0,0,1-3.21.72,6.28,6.28,0,0,1-2.61-1.25,9.64,9.64,0,0,1-1.7-1.64,2.74,2.74,0,0,1-.52-1.31,8.45,8.45,0,0,1,0-1.85ZM41,54.16H52.1l-.78-1.07c-.53-.72-1.05-1.45-1.59-2.16a1.58,1.58,0,0,1-.3-1.44,1.48,1.48,0,0,1,1.26-1.12,1.51,1.51,0,0,1,1.52.65l.36.52,1.47,2,.47.64a1.93,1.93,0,0,1,1-.9,1.54,1.54,0,0,1,1.28.05,2.06,2.06,0,0,1,1.11-1.05,1.53,1.53,0,0,1,1.47.19c.1-.14.2-.26.29-.39a.35.35,0,0,0,.07-.18q0-3,0-6.06s0-.09,0-.13H41Zm13.11,3.3c0,.25,0,.58.07.9a2.21,2.21,0,0,0,.62,1.4c.22.21.41.45.64.65a6.75,6.75,0,0,0,2.76,1.68,3.39,3.39,0,0,0,2.48-.21,9.46,9.46,0,0,0,1.34-.9l1.89-1.37a2.32,2.32,0,0,0,.92-1.35,4,4,0,0,0,0-1.83,11.19,11.19,0,0,0-1.16-3,23.33,23.33,0,0,0-1.87-2.9,1,1,0,0,0-1-.49,1.27,1.27,0,0,0-.79.54.47.47,0,0,0,0,.62.32.32,0,0,1-.06.46.31.31,0,0,1-.45-.09l-.32-.43a.91.91,0,0,0-.48-.34,1,1,0,0,0-1,.26,1.66,1.66,0,0,0-.22.24.47.47,0,0,0,0,.63.31.31,0,0,1-.06.45.32.32,0,0,1-.45-.08l-.16-.21A.92.92,0,0,0,55.54,52a.8.8,0,0,0-.33,1.17.37.37,0,0,1,0,.26.31.31,0,0,1-.56,0l-.83-1.13-2.14-2.94a.93.93,0,0,0-1.52,1.06l1.6,2.19,2.39,3.29a.5.5,0,0,1,.08.29C54.23,56.6,54.19,57,54.15,57.46ZM41,56H53.42s0,0,0,0l-.81-1.11a.2.2,0,0,0-.14-.06H41Z" transform="translate(-26.14 -2.74)"/>
    <path class="cls-1" d="M44.45,38.51H56v.63H44.46c0,.21,0,.4,0,.59,0,0,.05.07.09.09a1.18,1.18,0,0,1,.74,1.42,1.2,1.2,0,0,1-1.07.9,1.22,1.22,0,0,1-1.17-.7A1.19,1.19,0,0,1,43.39,40l.18-.12c0,.06,0,.11,0,.15,0,.3,0,.6,0,.9a.56.56,0,1,0,1-.32l-.13-.14c0,.17,0,.31,0,.44a.31.31,0,0,1-.2.31.28.28,0,0,1-.34-.08.4.4,0,0,1-.09-.24q0-1.73,0-3.46a.31.31,0,0,1,.31-.34.31.31,0,0,1,.33.34C44.46,37.81,44.45,38.15,44.45,38.51Z" transform="translate(-26.14 -2.74)"/>
    <path class="cls-1" d="M47.67,49.59a3.12,3.12,0,0,1,6.11-.86,4.74,4.74,0,0,1,.13.84.31.31,0,0,1-.31.34.32.32,0,0,1-.32-.34,2.4,2.4,0,0,0-1.37-2.19,2.33,2.33,0,0,0-2.52.17,2.48,2.48,0,0,0,.39,4.31c.25.12.32.37.14.54a.31.31,0,0,1-.36.06A3,3,0,0,1,48,51,2.83,2.83,0,0,1,47.67,49.59Z" transform="translate(-26.14 -2.74)"/>
  </g>
</svg>
