<svg id="Layer_1" data-name="Layer 1" xmlns="http://www.w3.org/2000/svg" viewBox="0 0 85.33 97.52">
  <defs>
    <style>
      .cls-1 {
        fill: #0d102e;
      }
    </style>
  </defs>
  <title>pass</title>
  <path class="cls-1" d="M19.67,56.73H18.56v2h1.11c.67,0,1.26-.15,1.26-1S20.34,56.73,19.67,56.73Zm0,0H18.56v2h1.11c.67,0,1.26-.15,1.26-1S20.34,56.73,19.67,56.73Zm0,0H18.56v2h1.11c.67,0,1.26-.15,1.26-1S20.34,56.73,19.67,56.73Zm6.11.49h0l-.85,2.39h1.69Zm-6.11-.49H18.56v2h1.11c.67,0,1.26-.15,1.26-1S20.34,56.73,19.67,56.73Zm6.11.49h0l-.85,2.39h1.69ZM91.17,33a52.66,52.66,0,0,0-7-15.93A29.34,29.34,0,0,0,69.57,5,57.51,57.51,0,0,0,53.85,1.8c-2.76-.23-5.54-.35-8.31-.45a39.87,39.87,0,0,0-8.4.23,13.57,13.57,0,0,0-9,5.43,19.69,19.69,0,0,0-3.45,10.08,45.25,45.25,0,0,0,.58,11.82c.16.92.32,1.84.48,2.78l-.25,0H11.93a5.31,5.31,0,0,0-1.16.1A4.27,4.27,0,0,0,7.35,36c0,3.15,0,6.29,0,9.44q0,14.37,0,28.74,0,10,0,20.05a4.35,4.35,0,0,0,4.51,4.51H47.74a4.37,4.37,0,0,0,4.56-4.57q0-2.69,0-5.38,0-15.3,0-30.61,0-11,0-21.93a4.93,4.93,0,0,0-.13-1.2A4.29,4.29,0,0,0,47.9,31.7c-2.47,0-4.94,0-7.41,0H37.89l.5-.4a27.25,27.25,0,0,1,8.23-4.59,10.55,10.55,0,0,1,5-.55A7.16,7.16,0,0,1,56.16,29a44.86,44.86,0,0,1,7.25,14A93.06,93.06,0,0,1,67,60c.53,4.05,1,8.12,1.55,12.16a20,20,0,0,0,1.58,5.74,5.67,5.67,0,0,0,7.34,3.31,12.71,12.71,0,0,0,6.07-4.49,36.16,36.16,0,0,0,5.9-11.14,59.22,59.22,0,0,0,3.18-16.44A55.69,55.69,0,0,0,91.17,33ZM29.72,36.31a4.25,4.25,0,0,1,4.34,4.06,4.19,4.19,0,0,1-4.24,4.3,4.18,4.18,0,1,1-.1-8.35Zm3.68,22c.48.12,1.94.42,1.94,1.9,0,1.2-.94,2.09-2.71,2.09-1.44,0-2.8-.71-2.78-2.32h1.39c0,.87.68,1.21,1.44,1.21.5,0,1.27-.15,1.27-.81s-1-.82-1.94-1.08-1.95-.63-1.95-1.86a2.18,2.18,0,0,1,2.44-2c1.36,0,2.61.59,2.61,2.1H33.74c0-.79-.6-1-1.29-1-.46,0-1,.19-1,.74S31.77,57.88,33.41,58.3Zm-8.35-2.69h1.47L29,62.14H27.47L27,60.68H24.54L24,62.14H22.58Zm-7.93,0h2.94a2.1,2.1,0,1,1,0,4.19H18.56v2.34H17.12ZM42.78,90.33h-26a1.44,1.44,0,0,1-1.37-.79,1.29,1.29,0,0,1,.12-1.43,1.43,1.43,0,0,1,1.28-.59H42.67c1,0,1.63.5,1.66,1.31A1.4,1.4,0,0,1,42.78,90.33Zm1.54-11.67a1.37,1.37,0,0,1-1.16,1.52,6,6,0,0,1-.81,0H16.91a1.42,1.42,0,0,1-1.55-1.86,1.16,1.16,0,0,1,1.09-.91c1.23,0,2.47-.06,3.7-.06H42.79A1.39,1.39,0,0,1,44.32,78.66Zm-5.15-23.2c1.36,0,2.61.59,2.61,2.1H40.4c0-.79-.6-1-1.29-1-.46,0-1,.19-1,.74s.31.57,1.95,1c.48.12,1.94.42,1.94,1.9,0,1.2-.94,2.09-2.71,2.09-1.44,0-2.8-.71-2.78-2.32H37.9c0,.87.68,1.21,1.44,1.21.5,0,1.27-.15,1.27-.81s-1-.82-1.94-1.08-1.95-.63-1.95-1.86A2.18,2.18,0,0,1,39.17,55.46Zm47.89-7.78a50.25,50.25,0,0,1-4.89,20.73,22.35,22.35,0,0,1-3.58,5.44,7.4,7.4,0,0,1-2.66,2c-.41.16-.66.09-.77-.32a31.85,31.85,0,0,1-1.05-3.95c-.58-4-1-8-1.56-12.05A92.72,92.72,0,0,0,68,39.06a44.65,44.65,0,0,0-8.28-14.47c-3-3.41-6.92-4.57-11.41-3.95a21.54,21.54,0,0,0-5.53,1.56,31.24,31.24,0,0,0-7.06,4.14c-1.46,1.15-2.84,2.4-4.25,3.61l-.25.21c-.16-.94-.33-1.81-.46-2.69a43.72,43.72,0,0,1-.52-8.29A17.79,17.79,0,0,1,32,11.45a8.19,8.19,0,0,1,6.32-4.39,36.79,36.79,0,0,1,7-.13c2.33.08,4.67.16,7,.34,5.47.44,10.87,1.2,16,3.31A23,23,0,0,1,79,19.32a48.27,48.27,0,0,1,6.49,14.05A48.48,48.48,0,0,1,87.07,47.68ZM25.78,57.22h0l-.85,2.39h1.69Zm-4.85.48c0-.83-.59-1-1.26-1H18.56v2h1.11C20.34,58.68,20.93,58.54,20.93,57.7Zm4.85-.48h0l-.85,2.39h1.69Zm-6.11-.49H18.56v2h1.11c.67,0,1.26-.15,1.26-1S20.34,56.73,19.67,56.73Zm6.11.49h0l-.85,2.39h1.69Zm-6.11-.49H18.56v2h1.11c.67,0,1.26-.15,1.26-1S20.34,56.73,19.67,56.73Z" transform="translate(-7.33 -1.24)"/>
</svg>
