<svg id="Layer_1" data-name="Layer 1" xmlns="http://www.w3.org/2000/svg" viewBox="0 0 62.85 85.47">
  <defs>
    <style>
      .cls-1 {
        fill: #d31c1c;
      }
    </style>
  </defs>
  <title>play</title>
  <path class="cls-1" d="M19.08,29c0-11.75,0-23.5,0-35.25,0-3,.82-5.42,3.6-6.81s5.14-.62,7.49,1.1Q54.34,5.63,78.58,23.17c2,1.48,3.36,3.27,3.33,5.88a6.64,6.64,0,0,1-3.15,5.48q-16,11.56-31.9,23.16c-5.64,4.1-11.3,8.16-16.92,12.3-2.32,1.71-4.76,2.28-7.37.93s-3.52-3.68-3.51-6.55C19.11,52.56,19.08,40.76,19.08,29Z" transform="translate(-19.06 13.8)"/>
</svg>
