<svg id="Layer_1" data-name="Layer 1" xmlns="http://www.w3.org/2000/svg" viewBox="0 0 73.78 99.23">
  <defs>
    <style>
      .cls-1 {
        fill: #ff5353;
      }
    </style>
  </defs>
  <title>reviews</title>
  <g>
    <path class="cls-1" d="M79.1,44.15a20.22,20.22,0,0,1,3.26.3,6.08,6.08,0,0,1,3.47,9.3c-2.11,3.07-4.3,6.09-6.43,9.14a1.75,1.75,0,0,0-.3.92c0,2.1,0,4.2,0,6.3,0,6.63,0,13.25,0,19.88a9.43,9.43,0,0,1-9.62,9.62c-7.31,0-14.63,0-21.94,0l-24.68,0a9.45,9.45,0,0,1-9.73-9.77q0-11.89,0-23.79,0-23.62,0-47.24,0-4.67,0-9.34A9.08,9.08,0,0,1,22.21.39c6.32,0,12.63,0,18.95,0q10.65,0,21.3-.05A1.9,1.9,0,0,1,64,1q4.67,4.86,9.36,9.69c1.77,1.83,3.55,3.64,5.29,5.49a1.81,1.81,0,0,1,.45,1.12c0,3.54,0,7.08,0,10.62q0,8,0,15.94A2.53,2.53,0,0,0,79.1,44.15ZM76.86,66.69l-.14,0-.3.41-15,21.27a6.16,6.16,0,0,1-10.52-.25c-2.6-4.14-5.16-8.31-7.71-12.48a6.12,6.12,0,0,1,9.59-7.45,22.06,22.06,0,0,1,2.11,3c.57.86,1.1,1.75,1.68,2.69l.53-.73L62.12,66q5.69-8,11.38-16.07c1-1.36,2-2.68,3-4a1.67,1.67,0,0,0,.36-.87c0-3.24,0-6.49,0-9.73q0-8.24,0-16.47c0-.18,0-.36,0-.53-1-.07-1.92-.07-2.84-.21a13.93,13.93,0,0,1-10.71-7.68,13.82,13.82,0,0,1-1.48-7.13c0-.51-.15-.65-.64-.64-1.44,0-2.88,0-4.32,0l-14.3,0c-6.74,0-13.48,0-20.23,0a6.75,6.75,0,0,0-7,6.87c0,3.84,0,7.67,0,11.51q0,13.32,0,26.65c0,6.66,0,13.31,0,20,0,7.38.06,14.76,0,22.13a7.39,7.39,0,0,0,7.37,7.66q19.3,0,38.6,0c2.8,0,5.6,0,8.4,0a7.2,7.2,0,0,0,7.19-7.34q0-10.94,0-21.88Q76.86,67.44,76.86,66.69Zm8-16.29-.17-.07a3.8,3.8,0,0,0-1.56-3.13c-1.94-1.46-4.35-1-5.85,1.16L57.59,76.23c-.73,1-1.57,1-2.23-.06-1.2-1.94-2.4-3.89-3.63-5.82A3.87,3.87,0,0,0,47,68.86a3.81,3.81,0,0,0-2.4,4.34,7.6,7.6,0,0,0,1,2.17Q49.18,81.2,52.8,87a3.93,3.93,0,0,0,6.73.15q5.67-8.05,11.36-16.08c4.35-6.15,8.73-12.29,13.05-18.47A10.44,10.44,0,0,0,84.83,50.4ZM75.25,15.88,64,4.31C64,10.83,69.85,16,75.25,15.88Z" transform="translate(-13.11 -0.38)"/>
    <path class="cls-1" d="M38.17,16.26H25.27c-.89,0-1.4-.42-1.39-1.11S24.4,14,25.24,14l20.09,0,5.78,0a1.16,1.16,0,0,1,1.21.74A1,1,0,0,1,52,16a1.81,1.81,0,0,1-1,.28c-4.28,0-8.56,0-12.84,0Z" transform="translate(-13.11 -0.38)"/>
    <path class="cls-1" d="M38.1,41H50.88a1.49,1.49,0,0,1,.91.17,1.51,1.51,0,0,1,.55,1c0,.33-.42.66-.71.92-.13.12-.4.1-.61.1H25.33a2.91,2.91,0,0,1-.63-.07,1,1,0,0,1-.81-.93,1,1,0,0,1,.68-1.1,2.36,2.36,0,0,1,.81-.12H38.1Z" transform="translate(-13.11 -0.38)"/>
    <path class="cls-1" d="M38.11,23h13c.8,0,1.3.41,1.31,1.06s-.48,1.14-1.31,1.14H25.6a3.79,3.79,0,0,1-.88-.06,1,1,0,0,1-.84-1.11,1.08,1.08,0,0,1,1-1c.23,0,.47,0,.7,0Z" transform="translate(-13.11 -0.38)"/>
    <path class="cls-1" d="M38.09,34.19H27.16l-2.16,0a1.05,1.05,0,0,1-.12-2.1c1.27,0,2.54,0,3.81-.06H31.1l19.77,0,.44,0A1.11,1.11,0,0,1,52.4,33.2a1.12,1.12,0,0,1-1.16,1H38.09Z" transform="translate(-13.11 -0.38)"/>
    <path class="cls-1" d="M38.16,50c4.32,0,8.64,0,13,0a1.13,1.13,0,0,1,1.25.85A1,1,0,0,1,51.83,52a2.06,2.06,0,0,1-.92.15H25.36c-1,0-1.48-.35-1.49-1.07S24.37,50,25.38,50H38.16Z" transform="translate(-13.11 -0.38)"/>
  </g>
</svg>
