<svg id="Layer_1" data-name="Layer 1" xmlns="http://www.w3.org/2000/svg" viewBox="0 0 82.99 98.32">
  <defs>
    <style>
      .cls-1 {
        fill: #1cacba;
      }
    </style>
  </defs>
  <title>wany-where</title>
  <g>
    <path class="cls-1" d="M44.59,81.35,40.3,76.47c-.83-.93-1.7-1.82-2.52-2.75q-2-2.21-3.88-4.46c-1.21-1.41-2.4-2.81-3.59-4.28A118,118,0,0,1,22,53.05a72,72,0,0,1-5.18-10.27,32.12,32.12,0,0,1-2.59-14.63A30.5,30.5,0,0,1,68.8,11.87,29.84,29.84,0,0,1,74.26,23a28.38,28.38,0,0,1,.17,13.77,53.64,53.64,0,0,1-5,12.59,89.2,89.2,0,0,1-7.55,11.87q-4.19,5.58-8.71,10.91c-2.58,3-5.37,5.86-8.07,8.78A3.82,3.82,0,0,1,44.59,81.35Zm0-28.34A22.46,22.46,0,1,0,44,53h.58Z" transform="translate(0 -0.01)"/>
    <path class="cls-1" d="M0,98.3l2.18-5.36q1.85-4.52,3.71-9c1-2.48,2.06-5,3.08-7.44q1.8-4.35,3.53-8.76a.93.93,0,0,1,1-.73H27.3c.72,0,.93.5,1.26.92.66.84,1.3,1.7,1.94,2.56a3.41,3.41,0,0,1,.25.54H16.44a1,1,0,0,0-1.16.76c-1.33,3.34-2.73,6.65-4.09,10L6.08,94.25H76.91l-1.66-4.07-3.75-9-3.1-7.51a17.85,17.85,0,0,1-.76-1.93c-.14-.48-.38-.58-.82-.58H58.44a2.06,2.06,0,0,1,.2-.48c.87-1.08,1.75-2.16,2.65-3.22a1.07,1.07,0,0,1,.7-.35h7.66a.89.89,0,0,1,.66.45q3.09,7.4,6.13,14.82,2.91,7.08,5.8,14.17L83,98.33Z" transform="translate(0 -0.01)"/>
    <path class="cls-1" d="M44.78,85.92c1.32-1.41,2.5-2.69,3.7-3.95a.88.88,0,0,1,.65-.29,9.9,9.9,0,0,1,4.22,1.7,2,2,0,0,1,0,3.44,10.53,10.53,0,0,1-4.51,1.77,21.2,21.2,0,0,1-9.15-.18,7.24,7.24,0,0,1-4.11-2.06,1.81,1.81,0,0,1,.21-2.79,9.32,9.32,0,0,1,4.52-1.89,1.39,1.39,0,0,1,.75.43C42.25,83.29,43.4,84.48,44.78,85.92Z" transform="translate(0 -0.01)"/>
    <g>
      <path class="cls-1" d="M50,25.39l-4.24-5.51A1.73,1.73,0,0,1,46,17.15c1.25-1,2.23-1.11,3.09,0q4.4,5.59,8.68,11.26c.84,1.11.54,2.14-.72,3a1.83,1.83,0,0,1-2.79-.54Z" transform="translate(0 -0.01)"/>
      <path class="cls-1" d="M38.87,34c1.43,1.86,2.88,3.72,4.3,5.59a1.77,1.77,0,0,1-.44,2.86c-1.14.86-2,.8-2.89-.29Q35.5,36.59,31.24,31c-.86-1.12-.7-2,.46-2.84s2-.83,2.87.27C36,30.28,37.43,32.15,38.87,34Z" transform="translate(0 -0.01)"/>
      <path class="cls-1" d="M56.75,20.28c.75,1,1.52,1.93,2.24,2.92a1.7,1.7,0,0,1-.36,2.63A1.69,1.69,0,0,1,56,25.62q-2.36-3-4.63-6A1.74,1.74,0,0,1,51.78,17a1.75,1.75,0,0,1,2.66.31C55.23,18.27,56,19.28,56.75,20.28Z" transform="translate(0 -0.01)"/>
      <path class="cls-1" d="M35.25,36.84c.77,1,1.56,2,2.31,3a1.62,1.62,0,0,1-.1,2.29l-.12.1c-1,.85-1.93,1-2.66.08Q32.14,39.22,29.79,36a1.67,1.67,0,0,1,.6-2.52,1.71,1.71,0,0,1,2.41.19l.14.19C33.72,34.83,34.5,35.84,35.25,36.84Z" transform="translate(0 -0.01)"/>
      <path class="cls-1" d="M47.5,25.72l1.53,2-7.62,5.87-1.53-2Z" transform="translate(0 -0.01)"/>
      <path class="cls-1" d="M30.5,37.56l2.77,3.59c-.8.36-1.8,1.12-2.16.89a5.12,5.12,0,0,1-2-2.42C29,39.15,30,38.35,30.5,37.56Z" transform="translate(0 -0.01)"/>
      <path class="cls-1" d="M58.43,21.88l-2.75-3.57c.79-.34,1.76-1.08,2.13-.85a4.76,4.76,0,0,1,1.88,2.33C59.84,20.23,59,21,58.43,21.88Z" transform="translate(0 -0.01)"/>
      <path class="cls-1" d="M37.61,31.63l1.1-.84L42,35l-1.1.84Z" transform="translate(0 -0.01)"/>
      <path class="cls-1" d="M50.27,28.62,47,24.4l1.06-.82,3.25,4.22Z" transform="translate(0 -0.01)"/>
    </g>
  </g>
</svg>
