<svg id="Layer_1" data-name="Layer 1" xmlns="http://www.w3.org/2000/svg" viewBox="0 0 82 96.79">
  <defs>
    <style>
      .cls-1 {
        fill: #1cacba;
      }

      .cls-2 {
        fill: #f05556;
      }
    </style>
  </defs>
  <title>wouttime</title>
  <g>
    <path class="cls-1" d="M41,14.76a41,41,0,1,1-.29,0Zm-.1,6.12a34.89,34.89,0,1,0,35,34.77q0-.38,0-.77a35,35,0,0,0-35-34Z" transform="translate(-0.01 0.03)"/>
    <path class="cls-1" d="M45.82,8.81v2.95H36.69V8.89C35,8.26,35,8.26,35,6.39V1.46c0-1,.35-1.5,1.44-1.49h9.74c1.25,0,1.47.23,1.47,1.54V6.66C47.66,8.38,47.62,8.39,45.82,8.81Z" transform="translate(-0.01 0.03)"/>
    <path class="cls-1" d="M66.82,19.88,68,18.29c-.89-.8-.58-1.53.12-2.27s1.06-1.25,1.58-1.88a1,1,0,0,1,1.64-.22l5.83,4.7a1,1,0,0,1,.15,1.71c-.56.65-1.1,1.32-1.61,2s-1.18,1.15-2.11.44L72.2,24.39Z" transform="translate(-0.01 0.03)"/>
    <path class="cls-1" d="M14.66,18.39l.91,1.22-5.46,4.51L9,22.84c-1,.7-1.66.17-2.27-.68-.47-.67-1.05-1.26-1.56-1.91a1,1,0,0,1,.21-1.64c1.92-1.54,3.83-3.1,5.74-4.64a1.1,1.1,0,0,1,1.75.17,20.41,20.41,0,0,1,1.89,2.35A4.37,4.37,0,0,1,15,18.22Z" transform="translate(-0.01 0.03)"/>
  </g>
  <circle class="cls-2" cx="41.33" cy="55.71" r="2.53"/>
  <g>
    <path class="cls-1" d="M42.81,61.71A28.62,28.62,0,0,1,45,64.2a6.19,6.19,0,0,1,1.13,2.39c.51,2.77.88,5.56,1.28,8.35a2.68,2.68,0,0,1-2,3.23l-.31.05a2.71,2.71,0,0,1-2.91-2.49v-.08c-.35-2.44-.7-4.87-1.1-7.3A2.86,2.86,0,0,0,40.45,67c-1.5-1.7-3-3.41-4.62-5a4,4,0,0,1-1.1-3.83q.92-5.55,1.81-11.09a3.53,3.53,0,0,0,0-.39c-1,.34-2.06.63-3,1-.18.07-.3.48-.31.74-.14,2.35-.26,4.7-.38,7a2.51,2.51,0,0,1-1.6,2.36,2.2,2.2,0,0,1-2.61-.64A2.88,2.88,0,0,1,28,55.5c.1-3.17.29-6.34.47-9.51a2.69,2.69,0,0,1,2.17-2.55q3.37-1,6.72-2.13a3,3,0,0,0,1.09-.65,4.42,4.42,0,0,1,7.46,3.92c-.8,4.86-1.56,9.72-2.38,14.57A24.07,24.07,0,0,1,42.81,61.71Z" transform="translate(-0.01 0.03)"/>
    <path class="cls-1" d="M49.9,79.14l3.31-12.53,4.14-15.7A2.72,2.72,0,0,1,59,48.84c.56-.22,1.06-.57,1.61-.82a1.87,1.87,0,0,1,1.72,3.31l-.14.08c-1.79.57-2.51,1.83-3,3.65-2.09,8.38-4.36,16.72-6.57,25.07-.51,1.93-.57,2-2.57,2H20.7c-1.11,0-1.8-.57-1.79-1.48s.69-1.46,1.81-1.47H49.9Z" transform="translate(-0.01 0.03)"/>
    <path class="cls-1" d="M44.66,38.16a5.45,5.45,0,1,1,.15,0Z" transform="translate(-0.01 0.03)"/>
    <path class="cls-1" d="M33.8,61c1.1,1.24,2.21,2.44,3.28,3.67A1,1,0,0,1,37.31,66c-.39.69-.65,1.45-1,2.16a2.76,2.76,0,0,1-3.56,1.6l-.25-.11-7.77-3.09a2.65,2.65,0,1,1,2-4.89l5.72,2.27Z" transform="translate(-0.01 0.03)"/>
    <path class="cls-1" d="M45.94,50.39c.22-1.41.49-2.72.61-4A1.66,1.66,0,0,1,48,44.65c2-.52,3.91-1.22,5.87-1.83a2.44,2.44,0,1,1,1.5,4.57c-2.86.92-5.73,1.82-8.59,2.73A5.76,5.76,0,0,1,45.94,50.39Z" transform="translate(-0.01 0.03)"/>
  </g>
</svg>
